<?xml version="1.0" encoding="UTF-8" standalone="no"?>
<!DOCTYPE svg PUBLIC "-//W3C//DTD SVG 1.1//EN" "http://www.w3.org/Graphics/SVG/1.1/DTD/svg11.dtd">
<svg width="100%" height="100%" viewBox="0 0 143 142" version="1.1" xmlns="http://www.w3.org/2000/svg" xmlns:xlink="http://www.w3.org/1999/xlink" xml:space="preserve" xmlns:serif="http://www.serif.com/" style="fill-rule:evenodd;clip-rule:evenodd;stroke-linejoin:round;stroke-miterlimit:1.41421;">
    <g transform="matrix(1,0,0,1,-4816.82,-614.632)">
        <g transform="matrix(0.85248,0,0,0.85248,2012.35,40.2617)">
            <g transform="matrix(0.173689,0,0,0.173689,3289.77,673.764)">
                <g>
                    <g id="Capa-1" serif:id="Capa 1">
                        <g transform="matrix(1,0,0,1,876.416,599.5)">
                            <path d="M0,-22.217C-1.2,-28.337 -2.852,-35.078 -7.652,-40.413C-12.754,-46.084 -17.956,-51.722 -23.651,-56.769C-25.347,-58.273 -30.33,-59.013 -31.266,-57.922C-35.411,-53.094 -39.324,-47.792 -41.98,-42.042C-44.436,-36.726 -45.835,-30.7 -46.541,-24.847C-47.685,-15.36 -45.568,-6.176 -38.582,0.606C-35.258,3.833 -30.635,7.748 -25.134,5.528C-20.174,3.525 -15.252,0.957 -11.03,-2.294C-4.905,-7.01 -0.776,-13.315 0,-22.217M-687.117,-127.7C-685.415,-140.577 -699.558,-154.953 -714.154,-154.541C-729.037,-154.12 -740.694,-142.914 -740.706,-127.776C-740.718,-113.057 -729.009,-100.612 -713.941,-100.485C-698.896,-100.359 -685.495,-114.572 -687.117,-127.7M-458.046,-296.465C-488.994,-295.853 -512.128,-296.498 -534.896,-291.244C-544.568,-289.012 -554.48,-287.844 -564.215,-285.858C-570.196,-284.639 -576.128,-283.038 -581.939,-281.165C-593.183,-277.541 -595.724,-269.427 -595.261,-260.228C-594.794,-250.965 -585.755,-242.147 -577.004,-243.158C-569.669,-244.006 -562.473,-246.029 -555.194,-247.417C-551.311,-248.158 -547.358,-248.536 -543.478,-249.29C-533.862,-251.159 -524.31,-253.39 -514.653,-254.998C-509.29,-255.891 -503.773,-255.964 -498.316,-256.171C-469.393,-257.267 -440.455,-259.226 -411.744,-253.214C-402.847,-251.352 -393.743,-250.5 -384.768,-248.984C-378.951,-248.001 -372.794,-247.579 -367.491,-245.283C-354.464,-239.642 -339.697,-243.582 -337.387,-259.294C-335.71,-270.698 -339.536,-277.271 -348.565,-280.677C-357.044,-283.876 -365.947,-286.175 -374.844,-287.984C-387.009,-290.458 -399.28,-292.823 -411.623,-293.916C-429.652,-295.513 -447.784,-295.94 -458.046,-296.465M-4.836,-76.482C-2.508,-73.687 -0.862,-70.901 1.505,-69.025C7.948,-63.922 11.097,-56.682 14.726,-49.757C22.737,-34.472 22.972,-18.248 18.556,-2.17C15.969,7.247 9.665,14.753 2.114,21.465C-4.727,27.546 -12.175,31.846 -20.764,33.931C-32.795,36.852 -44.95,35.906 -55.351,29.049C-61.652,24.895 -67.039,18.844 -71.661,12.753C-84.366,-3.993 -82.905,-23.203 -78.477,-41.994C-76.721,-49.442 -71.021,-55.96 -67.129,-62.909C-66.823,-63.455 -66.61,-64.053 -66.99,-66.109C-72.656,-64.195 -78.409,-62.499 -83.961,-60.297C-88.298,-58.578 -92.403,-56.263 -96.581,-54.154C-100.67,-52.09 -103.858,-50.432 -102.584,-44.095C-98.874,-25.645 -99.709,-6.803 -100.533,11.857C-101.045,23.443 -102.779,35.148 -105.523,46.419C-109.372,62.228 -114.122,77.877 -119.543,93.222C-123.165,103.476 -127.878,113.525 -133.436,122.872C-141.603,136.606 -150.539,149.938 -159.944,162.862C-167.655,173.46 -176.032,183.681 -185.035,193.197C-192.806,201.409 -201.873,208.395 -210.37,215.921C-219.738,224.218 -226.185,233.895 -227.382,246.911C-228.338,257.308 -230.595,267.585 -232.274,277.916C-233.943,288.191 -235.443,298.498 -237.33,308.733C-239.064,318.134 -241.475,327.415 -243.078,336.835C-243.93,341.835 -244.799,346.295 -247.956,350.749C-252.442,357.076 -259.15,358.274 -265.107,358.437C-291.753,359.164 -318.433,359.155 -345.086,358.629C-350.89,358.515 -357.483,356.377 -362.19,353.031C-368.414,348.605 -370.358,340.841 -371.222,333.242C-371.932,326.995 -372.317,320.697 -373.339,314.503C-374.172,309.451 -375.732,304.52 -377.247,298.42C-432.783,310.327 -489.02,311.762 -546.172,299.923C-547.524,307.667 -549.143,315.399 -550.165,323.208C-551.279,331.718 -551.872,340.322 -556.172,348.001C-558.299,351.798 -560.927,354.88 -565.682,356.121C-572.735,357.963 -579.711,359.074 -587.048,358.98C-610.209,358.684 -633.389,359.226 -656.535,358.529C-669.346,358.144 -677.219,353.017 -679.259,338.824C-680.84,327.826 -682.524,316.841 -684.28,305.868C-685.852,296.044 -687.544,286.238 -689.26,276.438C-690.524,269.215 -691.467,261.894 -693.375,254.839C-695.063,248.598 -697.07,242.156 -700.448,236.746C-703.517,231.83 -708.491,228.044 -712.857,224.011C-720.558,216.898 -728.599,210.148 -736.19,202.923C-743.027,196.416 -749.834,189.803 -755.958,182.64C-763.565,173.743 -770.882,164.529 -777.542,154.911C-785.278,143.739 -792.277,132.047 -799.379,120.449C-803.139,114.309 -805.877,107.471 -810.141,101.739C-813.098,97.763 -817.772,95.007 -821.852,91.936C-827.815,87.448 -835.114,87.179 -842.084,85.833C-848.585,84.579 -855.369,83.85 -861.407,81.374C-869.784,77.939 -876.45,73.982 -876.37,61.9C-876.045,12.574 -875.985,-36.757 -876.415,-86.082C-876.519,-97.929 -868.956,-103.477 -859.612,-105.982C-850.243,-108.495 -840.348,-109.237 -831.176,-112.252C-819.538,-116.077 -809.922,-122.942 -804.233,-134.664C-799.427,-144.569 -793.687,-154.03 -788.158,-163.57C-785.048,-168.935 -781.781,-174.248 -778.129,-179.251C-773.715,-185.295 -768.813,-190.981 -764.132,-196.83C-760.359,-201.546 -756.853,-206.505 -752.78,-210.944C-746.152,-218.168 -739.708,-225.733 -732.143,-231.867C-726.248,-236.647 -728.54,-241.676 -729.552,-246.613C-731.332,-255.3 -733.782,-263.866 -736.291,-272.382C-739.094,-281.892 -742.138,-291.337 -745.331,-300.724C-748.223,-309.223 -751.221,-317.701 -754.594,-326.016C-759.926,-339.161 -765.819,-352.081 -770.976,-365.29C-772.042,-368.02 -771.977,-372.202 -770.575,-374.65C-768.422,-378.408 -764.514,-381.443 -759.53,-379.633C-751.526,-376.725 -743.63,-373.5 -735.77,-370.214C-723.078,-364.907 -710.359,-359.647 -697.829,-353.976C-688.477,-349.744 -679.323,-345.052 -670.229,-340.283C-658.941,-334.363 -647.721,-328.303 -636.636,-322.014C-629.697,-318.077 -622.869,-313.88 -616.344,-309.298C-610.078,-304.898 -604.578,-308.863 -599,-310.317C-590.798,-312.454 -582.896,-315.728 -574.719,-317.986C-564.151,-320.905 -553.512,-323.681 -542.763,-325.8C-534.348,-327.459 -525.674,-327.751 -517.192,-329.128C-493.686,-332.943 -470,-332.404 -446.361,-331.952C-434.543,-331.726 -422.751,-329.949 -410.957,-328.771C-404.874,-328.163 -398.731,-327.733 -392.76,-326.513C-381.187,-324.147 -369.629,-321.606 -358.228,-318.534C-345.579,-315.127 -332.854,-311.725 -320.634,-307.078C-306.517,-301.71 -292.669,-295.479 -279.168,-288.699C-267.838,-283.009 -256.951,-276.34 -246.293,-269.447C-238.802,-264.602 -231.986,-258.703 -224.937,-253.186C-217.954,-247.721 -210.742,-242.492 -204.211,-236.523C-197.287,-230.195 -190.999,-223.164 -184.527,-216.351C-180.523,-212.136 -176.518,-207.899 -172.835,-203.409C-168.45,-198.063 -164.289,-192.521 -160.25,-186.907C-155.478,-180.274 -150.428,-173.764 -146.409,-166.684C-138.58,-152.894 -131.265,-138.806 -123.998,-124.707C-121.721,-120.29 -120.124,-115.496 -118.496,-110.779C-116.538,-105.103 -115.037,-99.265 -112.951,-93.641C-112.546,-92.55 -110.128,-91.231 -109.038,-91.521C-99.208,-94.132 -89.622,-98.285 -79.653,-99.562C-70.936,-100.679 -61.724,-101.829 -52.809,-98.389C-48.758,-96.825 -44.063,-97.008 -39.746,-96.024C-37.305,-95.467 -35.094,-93.957 -32.671,-93.248C-31.297,-92.846 -29.604,-92.865 -28.229,-93.275C-25.792,-94.003 -23.514,-95.239 -21.125,-96.148C-6.267,-101.803 9.258,-102.927 24.723,-100.837C34.294,-99.543 43.696,-96.194 52.846,-92.864C58.947,-90.643 64.783,-87.291 70.162,-83.604C75.839,-79.714 80.977,-74.979 86.017,-70.257C87.196,-69.152 87.94,-65.454 87.305,-64.954C85.611,-63.619 82.616,-62.25 80.929,-62.911C76.039,-64.828 71.335,-67.428 66.928,-70.324C60.2,-74.745 52.834,-77.156 45.132,-79.189C34.66,-81.955 24.185,-83.092 13.542,-81.056C7.567,-79.914 1.713,-78.135 -4.836,-76.482" style="fill-rule:nonzero;"/>
                        </g>
                        <g transform="matrix(1,0,0,1,410.251,-0.7589)">
                            <path d="M0,221.559C-7.09,221.062 -14.111,221.517 -20.617,219.901C-31.622,217.169 -42.813,214.428 -52.514,208.052C-59.449,203.495 -66.623,199.183 -73.002,193.925C-82.255,186.3 -89.318,176.778 -95.407,166.342C-100.888,156.949 -105.196,147.111 -107.451,136.68C-110.651,121.871 -110.835,106.813 -108.486,91.687C-106.85,81.152 -103.478,71.261 -98.647,61.981C-94.981,54.938 -89.801,48.694 -85.438,42.001C-79.274,32.546 -70.296,26.016 -61.365,19.707C-54.99,15.204 -47.753,11.589 -40.422,8.865C-33.051,6.127 -24.842,5.657 -17.451,2.959C-9.125,-0.081 -0.68,0.683 7.469,1.429C21.075,2.672 34.83,4.453 46.867,12.123C52.384,15.638 58.146,18.765 63.778,22.101C72.329,27.166 79.016,34.152 85.303,41.805C92.738,50.855 98.471,60.842 102.779,71.543C111.697,93.693 111.959,116.753 106.639,139.585C103.799,151.773 98.633,163.603 90.63,173.621C84.523,181.266 78.327,188.974 71.221,195.642C66.175,200.376 59.423,203.245 53.654,207.265C43.944,214.03 32.597,216.728 21.554,219.749C14.641,221.64 7.049,221.052 0,221.559" style="fill-rule:nonzero;"/>
                        </g>
                        <g transform="matrix(1,0,0,1,418.37,359.824)">
                            <path d="M0,-56.789C10.262,-56.264 28.395,-55.838 46.424,-54.241C58.766,-53.147 71.037,-50.782 83.203,-48.308C92.099,-46.499 101.002,-44.2 109.481,-41.001C118.51,-37.595 122.336,-31.023 120.659,-19.618C118.349,-3.906 103.582,0.033 90.555,-5.607C85.252,-7.903 79.095,-8.325 73.278,-9.308C64.303,-10.825 55.199,-11.676 46.303,-13.539C17.591,-19.55 -11.346,-17.592 -40.27,-16.496C-45.727,-16.289 -51.244,-16.215 -56.607,-15.322C-66.264,-13.714 -75.816,-11.483 -85.432,-9.614C-89.312,-8.86 -93.265,-8.482 -97.148,-7.742C-104.427,-6.353 -111.622,-4.331 -118.958,-3.483C-127.709,-2.471 -136.747,-11.289 -137.214,-20.552C-137.678,-29.751 -135.137,-37.865 -123.893,-41.49C-118.082,-43.363 -112.149,-44.963 -106.169,-46.183C-96.434,-48.168 -86.522,-49.337 -76.85,-51.569C-54.082,-56.822 -30.948,-56.178 0,-56.789" style="fill:white;fill-rule:nonzero;"/>
                        </g>
                        <g transform="matrix(1,0,0,1,189.3,471.888)">
                            <path d="M0,-0.089C1.622,13.039 -11.779,27.253 -26.824,27.126C-41.892,26.999 -53.601,14.555 -53.589,-0.165C-53.577,-15.303 -41.92,-26.509 -27.037,-26.929C-12.441,-27.342 1.701,-12.965 0,-0.089" style="fill:white;fill-rule:nonzero;"/>
                        </g>
                    </g>
                </g>
            </g>
        </g>
    </g>
</svg>
