<?xml version="1.0" encoding="UTF-8" standalone="no"?>
<!DOCTYPE svg PUBLIC "-//W3C//DTD SVG 1.1//EN" "http://www.w3.org/Graphics/SVG/1.1/DTD/svg11.dtd">
<svg width="100%" height="100%" viewBox="0 0 96 106" version="1.1" xmlns="http://www.w3.org/2000/svg" xmlns:xlink="http://www.w3.org/1999/xlink" xml:space="preserve" xmlns:serif="http://www.serif.com/" style="fill-rule:evenodd;clip-rule:evenodd;stroke-linejoin:round;stroke-miterlimit:1.41421;">
    <g transform="matrix(1,0,0,1,-4252.32,-641.21)">
        <g transform="matrix(2,0,0,4.47201,3126.41,0)">
            <g transform="matrix(0.0298576,0,0,0.0133531,599.141,149.071)">
                <path d="M0,986.251C-47.374,986.251 -87.77,986.953 -128.119,985.88C-142.767,985.491 -148.728,991.548 -155.201,1003.72C-178.997,1048.47 -203.999,1092.6 -229.549,1136.38C-237.472,1149.96 -248.573,1161.68 -258.219,1174.25C-154.684,1138.32 -71.246,1076.31 0,986.251M-703.26,1178.7C-749.231,1123.49 -785.021,1062.79 -812.272,996.879C-814.062,992.548 -819.864,986.975 -823.878,986.911C-868.654,986.201 -913.446,986.463 -963.578,986.463C-891.814,1077.49 -806.555,1139.95 -703.26,1178.7M-966.585,243.271C-916.593,243.271 -873.802,244.011 -831.089,242.517C-824.251,242.278 -815.395,233.321 -811.537,226.194C-797.363,200.006 -786.723,171.788 -771.35,146.394C-750.738,112.346 -726.964,80.213 -702.509,44.259C-808.349,86.69 -894.28,149.996 -966.585,243.271M-515.162,988.139L-744.989,988.139C-708.767,1091.88 -600.17,1215.39 -515.162,1213.85L-515.162,988.139ZM-449.486,1214.36C-359.028,1215.17 -244.631,1077.21 -220.353,988.259L-449.486,988.259L-449.486,1214.36ZM-515.131,10.387C-608.65,15.382 -716.915,146.094 -745.516,241.513L-515.131,241.513L-515.131,10.387ZM-845.297,923.405C-860.077,830.57 -874.433,740.399 -888.959,649.16L-1087.04,649.16C-1088.06,652.981 -1089.31,655.291 -1089.19,657.529C-1084.34,749.411 -1056.97,834.561 -1011.64,914.178C-1009.27,918.346 -1003.17,922.96 -998.758,923.012C-946.589,923.624 -894.41,923.405 -845.297,923.405M-846.313,306.007C-895.018,306.007 -947.48,305.462 -999.899,306.73C-1006.12,306.88 -1014.86,315.768 -1017.75,322.59C-1035.98,365.562 -1055.07,408.376 -1069.58,452.65C-1083.28,494.44 -1091.13,538.03 -1089.15,583.418L-889.371,583.418C-874.924,490.338 -860.753,399.04 -846.313,306.007M-515.434,651.456C-518.753,649.879 -520.179,648.611 -521.61,648.606C-616.173,648.265 -710.738,647.787 -805.294,648.492C-809.984,648.527 -818.796,659.073 -818.617,664.49C-815.916,746.206 -802.475,826.198 -778.956,904.626C-774.23,920.385 -766.339,924.074 -751.349,923.947C-680.214,923.341 -609.071,923.719 -537.931,923.611C-530.88,923.601 -523.831,922.672 -515.434,922.073L-515.434,651.456ZM-515.284,306.008C-598.807,306.008 -681.038,305.735 -763.255,306.662C-768.374,306.719 -776.334,315.389 -777.969,321.411C-788.085,358.655 -799.158,395.901 -805.328,433.891C-813.272,482.799 -816.904,532.407 -822.549,583.105L-515.284,583.105L-515.284,306.008ZM-374.286,-109.353C-385.924,-66.178 -396.964,-25.22 -408.312,16.88C-421.106,14.183 -433.942,11.477 -451.062,7.869C-451.062,24.384 -451.072,37.787 -451.06,51.19C-451.013,102.208 -450.82,153.226 -450.956,204.243C-451.052,240.332 -451.249,240.332 -415.883,245.965C-413.092,264.438 -410.232,283.377 -407.053,304.423C-421.601,305.414 -434.86,306.317 -449.474,307.313L-449.474,584.743C-402.867,584.743 -357.734,586.027 -312.724,584.23C-288.223,583.253 -269.56,588.182 -254.454,608.991C-245.35,621.532 -231.508,630.633 -219.795,641.28C-221.021,643.413 -222.247,645.546 -223.474,647.68C-258.744,647.68 -294.014,647.681 -329.285,647.679C-363.297,647.678 -397.32,648.183 -431.316,647.433C-446.146,647.105 -451.151,652.602 -451.074,667.26C-450.66,745.808 -450.698,824.363 -451.25,902.91C-451.36,918.582 -446.007,924.098 -430.077,923.949C-357.199,923.269 -284.307,923.134 -211.432,923.932C-195.413,924.107 -187.592,918.377 -184.623,903.405C-173.189,845.754 -161.526,788.148 -150.062,730.502C-148.179,721.029 -146.872,711.441 -144.896,699.464C-127.795,706.423 -111.244,711.874 -96.166,720.043C-91.378,722.636 -87.335,733.021 -88.351,738.909C-97.797,793.678 -108.408,848.246 -118.728,902.863C-119.743,908.233 -121.077,913.542 -122.894,921.717C-113.53,922.433 -105.91,923.484 -98.284,923.521C-58.604,923.715 -18.898,922.852 20.748,924.053C37.629,924.564 46.596,918.806 54.557,903.81C130.074,761.546 147.295,613.619 101.962,458.405C66.432,336.756 12.382,224.913 -68.102,126.473C-73.991,119.269 -80.643,112.689 -86.941,105.819C-89,106.807 -91.06,107.795 -93.119,108.783C-90.617,117.064 -88.706,125.58 -85.523,133.59C-40.795,246.172 -1.475,360.517 21.109,479.787C29.203,522.528 32.787,566.19 36.942,609.574C38.367,624.453 35.257,639.767 34.12,656.316C-33.91,659.868 -92.762,642.177 -144.284,601.69C-235.031,530.379 -287.599,434.622 -317.932,325.362C-385.468,82.104 -288.754,-223.727 -93.644,-383.751C-76.225,-398.037 -56.946,-410.287 -37.508,-421.748C-30.825,-425.687 -19.19,-427.611 -13.247,-424.3C-8.878,-421.865 -7.93,-409.065 -9.142,-401.471C-29.048,-276.727 -11.977,-159.563 74.093,-62.821C108.287,-24.388 155.325,2.783 197.196,34.173C240.335,66.514 291.034,91.622 326.584,130.674C415.613,228.471 417.528,386.165 336.321,498.893C315.768,527.424 287.363,550.196 263.876,576.771C256.23,585.422 247.946,597.802 248.057,608.391C251.624,950.311 12.142,1249.61 -318.671,1324.16C-716.691,1413.86 -1101.21,1167.37 -1189.72,785.19C-1252.93,512.252 -1180.77,274.274 -978.84,79.501C-864.339,-30.944 -725.024,-93.26 -566.351,-111.451C-502.656,-118.754 -439.368,-117.542 -374.286,-109.353" style="fill-rule:nonzero;"/>
            </g>
        </g>
    </g>
</svg>
