<?xml version="1.0" encoding="UTF-8" standalone="no"?>
<!DOCTYPE svg PUBLIC "-//W3C//DTD SVG 1.1//EN" "http://www.w3.org/Graphics/SVG/1.1/DTD/svg11.dtd">
<svg width="100%" height="100%" viewBox="0 0 126 126" version="1.1" xmlns="http://www.w3.org/2000/svg" xmlns:xlink="http://www.w3.org/1999/xlink" xml:space="preserve" xmlns:serif="http://www.serif.com/" style="fill-rule:evenodd;clip-rule:evenodd;stroke-linejoin:round;stroke-miterlimit:1.41421;">
    <g transform="matrix(1,0,0,1,-3417.56,-4873)">
        <g transform="matrix(2.31639,0,0,2.31639,3072.53,-810.947)">
            <g transform="matrix(1.47212,0,0,1.47212,97.1252,2416.52)">
                <path d="M69.926,28.815C71.654,30.595 69.871,32.323 69.871,32.323L65.095,36.952C63.316,38.679 61.587,36.897 61.587,36.897L60.774,36.058C59.047,34.276 60.827,32.547 60.827,32.547L65.603,27.921C67.384,26.193 69.113,27.975 69.113,27.975L69.926,28.815ZM45.262,50.811C45.262,50.811 43.534,49.029 41.753,50.757L36.977,55.383C36.977,55.383 35.196,57.112 36.924,58.894L37.737,59.732C37.737,59.732 39.465,61.515 41.245,59.788L46.02,55.159C46.02,55.159 47.803,53.431 46.075,51.651L45.262,50.811ZM71.631,47.385C69.608,57.341 59.896,63.772 49.94,61.748C48.344,61.423 46.839,60.901 45.445,60.212L48.758,56.981C48.758,56.981 52.312,53.536 48.869,49.989L47.248,48.314C47.248,48.314 43.802,44.762 40.253,48.206L36.914,51.46C35.316,48.02 34.763,44.058 35.577,40.056C37.601,30.1 47.312,23.669 57.268,25.693C58.866,26.019 60.372,26.542 61.768,27.232L58.424,30.458C58.424,30.458 54.875,33.905 58.318,37.456L59.938,39.128C59.938,39.128 63.384,42.682 66.932,39.238L70.296,35.989C71.892,39.427 72.444,43.386 71.631,47.385M57.519,43.677C57.542,41.492 55.79,39.702 53.604,39.678C51.419,39.655 49.629,41.407 49.606,43.593C49.582,45.778 51.335,47.568 53.52,47.591C55.705,47.615 57.495,45.861 57.519,43.677" style="fill:rgb(28,31,28);fill-rule:nonzero;"/>
            </g>
        </g>
    </g>
</svg>
