<?xml version="1.0" encoding="UTF-8" standalone="no"?>
<!DOCTYPE svg PUBLIC "-//W3C//DTD SVG 1.1//EN" "http://www.w3.org/Graphics/SVG/1.1/DTD/svg11.dtd">
<svg width="100%" height="100%" viewBox="0 0 137 96" version="1.1" xmlns="http://www.w3.org/2000/svg" xmlns:xlink="http://www.w3.org/1999/xlink" xml:space="preserve" xmlns:serif="http://www.serif.com/" style="fill-rule:evenodd;clip-rule:evenodd;stroke-linejoin:round;stroke-miterlimit:1.41421;">
    <g transform="matrix(1,0,0,1,-3599.8,-661.071)">
        <g transform="matrix(0.85248,0,0,0.85248,305.998,40.2617)">
            <g transform="matrix(0.673867,0,0,0.673867,3863.79,728.239)">
                <g>
                    <g id="Capa-1" serif:id="Capa 1">
                        <g transform="matrix(1,0,0,1,55.8121,87.7109)">
                            <path d="M0,-12.77C0.013,-12.712 0.025,-12.653 0.038,-12.595C2.527,-12.118 5.017,-11.646 7.505,-11.163C9.522,-10.772 11.531,-10.334 13.554,-9.978C16.046,-9.54 18.542,-9.115 21.049,-8.78C22.858,-8.538 22.869,-8.608 22.905,-6.77C22.913,-6.37 22.907,-5.97 22.907,-5.57C22.907,7.26 22.907,20.09 22.907,32.839C23.063,32.569 23.387,32.233 23.456,31.851C23.895,29.441 24.265,27.019 24.681,24.606C24.981,22.861 25.324,21.124 25.634,19.381C26.042,17.089 26.436,14.795 26.839,12.502C27.235,10.248 27.642,7.995 28.031,5.74C28.366,3.79 28.683,1.837 29.008,-0.115C29.124,-0.814 29.236,-1.513 29.354,-2.212C29.745,-4.532 30.157,-6.848 30.5,-9.175C30.535,-9.407 30.216,-9.814 29.962,-9.938C29.47,-10.179 28.916,-10.318 28.372,-10.424C26.209,-10.846 24.043,-11.252 21.874,-11.641C19.336,-12.097 16.794,-12.524 14.256,-12.973C12.271,-13.324 10.295,-13.936 8.305,-13.98C6.388,-14.022 4.458,-13.49 2.535,-13.199C1.688,-13.07 0.845,-12.914 0,-12.77M71.181,21.378C69.642,22.967 69.534,25.017 69.355,26.958C69.056,30.204 68.98,33.469 68.817,36.607C68.006,36.962 67.25,37.209 66.581,37.603C65.207,38.413 63.825,38.896 62.159,38.79C59.005,38.59 55.855,38.595 52.702,38.097C49.088,37.527 45.4,37.445 41.754,37.061C38.65,36.734 35.557,36.299 32.464,35.876C29.716,35.501 26.974,35.079 24.229,34.674C22.865,34.472 21.484,34.342 20.143,34.037C18.226,33.6 16.342,33.02 14.438,32.523C12.838,32.105 11.214,31.772 9.63,31.304C7.365,30.635 5.102,29.944 2.883,29.137C0.38,28.226 -2.137,27.307 -4.527,26.143C-6.383,25.24 -8.102,24.023 -9.787,22.813C-10.69,22.165 -11.58,21.35 -12.147,20.412C-13.174,18.711 -14.32,16.966 -13.617,14.589C-14.959,15.847 -15.274,18.742 -14.442,20.531C-13.305,22.971 -11.447,24.84 -9.232,26.204C-6.56,27.85 -3.75,29.327 -0.86,30.548C2.292,31.879 5.587,32.885 8.853,33.929C10.503,34.456 12.222,34.766 13.916,35.15C15.758,35.566 17.604,35.967 19.453,36.351C21.458,36.766 23.463,37.182 25.477,37.544C27.467,37.901 29.465,38.225 31.467,38.503C34.555,38.933 37.646,39.336 40.742,39.702C42,39.851 43.272,39.882 44.539,39.953C46.279,40.05 48.023,40.102 49.761,40.231C52.502,40.434 55.238,40.698 57.977,40.91C59.746,41.047 61.518,41.138 63.32,41.251C63.32,41.788 63.32,42.226 63.32,42.665C63.32,47.544 63.313,52.422 63.324,57.301C63.327,58.924 64.332,60.226 65.72,60.387L65.72,59.07C65.72,53.512 65.704,47.953 65.745,42.395C65.749,41.88 65.967,41.121 66.338,40.901C67.555,40.18 68.846,39.523 70.191,39.107C70.958,38.871 71.201,38.656 71.197,37.873C71.166,32.393 71.181,26.912 71.181,21.378M-22.745,25.879C-22.155,28.756 -23.642,31.563 -22.35,34.169C-22.238,34.171 -22.127,34.173 -22.016,34.175C-21.971,33.935 -21.895,33.695 -21.885,33.453C-21.713,29.212 -21.556,24.969 -21.38,20.728C-21.33,19.498 -21.396,18.232 -21.12,17.051C-20.734,15.397 -20.104,13.797 -19.526,12.193C-19.16,11.178 -18.775,10.157 -18.266,9.209C-17.018,6.888 -15.728,4.587 -14.378,2.324C-13.957,1.618 -13.251,1.089 -12.746,0.426C-12.443,0.029 -12.172,-0.449 -12.068,-0.93C-11.7,-2.635 -11.466,-4.371 -11.078,-6.071C-10.313,-9.421 -9.541,-12.772 -8.651,-16.089C-8.045,-18.349 -7.273,-20.567 -6.503,-22.778C-5.749,-24.941 -5.01,-27.119 -4.073,-29.205C-2.88,-31.862 -1.53,-34.45 -0.182,-37.033C1.101,-39.491 2.348,-41.982 3.833,-44.317C5.413,-46.804 7.184,-49.18 9.001,-51.503C10.812,-53.818 12.658,-56.131 14.719,-58.219C17.122,-60.655 19.737,-62.887 22.33,-65.128C23.998,-66.569 25.769,-67.897 27.542,-69.211C28.16,-69.67 28.922,-69.936 29.741,-70.221C29.127,-69.666 28.502,-69.122 27.901,-68.554C26.538,-67.264 25.139,-66.007 23.842,-64.653C22.432,-63.182 21.059,-61.667 19.788,-60.077C18.76,-58.79 17.874,-57.384 16.983,-55.994C15.522,-53.714 14.029,-51.448 12.699,-49.092C11.668,-47.266 10.87,-45.31 9.962,-43.415C8.568,-40.504 7.273,-37.558 6.426,-34.426C5.772,-32.012 5.079,-29.602 4.256,-27.241C3.279,-24.436 3.38,-21.559 3.48,-18.665C3.545,-19.464 3.516,-20.285 3.694,-21.058C4.226,-23.372 4.808,-25.677 5.43,-27.969C5.968,-29.95 6.514,-31.935 7.194,-33.87C7.789,-35.562 8.506,-37.221 9.29,-38.835C10.992,-42.336 12.676,-45.852 14.551,-49.26C15.845,-51.612 17.419,-53.812 18.921,-56.044C20.084,-57.773 21.222,-59.536 22.565,-61.121C24.388,-63.273 26.325,-65.342 28.343,-67.314C30.623,-69.543 32.953,-71.742 35.44,-73.732C37.21,-75.149 39.26,-76.222 41.21,-77.406C42.899,-78.432 44.602,-79.439 46.342,-80.375C47.345,-80.914 48.412,-81.354 49.487,-81.737C52.444,-82.791 55.334,-83.979 58.43,-84.713C61.122,-85.351 63.759,-85.544 66.551,-85.349C65.753,-85.023 64.945,-84.719 64.158,-84.368C62.779,-83.753 61.414,-83.105 60.04,-82.48C59.053,-82.031 58.001,-81.696 57.08,-81.14C54.647,-79.67 52.234,-78.162 49.883,-76.565C48.192,-75.417 46.579,-74.146 44.998,-72.848C43.985,-72.016 43.08,-71.048 42.149,-70.119C40.771,-68.742 39.365,-67.389 38.062,-65.944C36.965,-64.728 35.981,-63.409 34.981,-62.108C34.12,-60.987 33.279,-59.847 32.48,-58.68C31.359,-57.042 30.23,-55.405 29.204,-53.708C27.813,-51.406 26.402,-49.104 25.213,-46.697C24.091,-44.424 23.185,-42.037 22.291,-39.66C21.109,-36.514 20.004,-33.337 18.922,-30.155C18.45,-28.768 18.274,-27.263 17.684,-25.936C16.539,-23.363 17.26,-20.743 17.293,-18.154C17.308,-17.01 17.877,-15.869 18.237,-14.741C18.278,-14.616 18.604,-14.582 18.69,-14.548C18.592,-15.303 18.453,-16.028 18.415,-16.758C18.374,-17.553 18.409,-18.354 18.442,-19.151C18.565,-22.178 19.009,-25.133 20.075,-28.002C20.774,-29.884 21.174,-31.874 21.807,-33.783C22.296,-35.255 22.931,-36.68 23.515,-38.119C23.889,-39.04 24.279,-39.954 24.681,-40.863C25.476,-42.661 26.165,-44.52 27.116,-46.234C28.778,-49.23 30.556,-52.166 32.378,-55.069C33.644,-57.085 34.962,-59.085 36.445,-60.942C37.984,-62.868 39.743,-64.619 41.417,-66.436C42.251,-67.34 43.04,-68.305 43.975,-69.093C46.124,-70.905 48.4,-72.568 50.53,-74.401C52.188,-75.828 53.982,-76.97 55.936,-77.945C57.904,-78.927 59.721,-80.208 61.669,-81.234C64.282,-82.612 66.988,-83.762 69.823,-84.663C72.891,-85.638 75.915,-86.685 79.142,-87.019C80.708,-87.181 82.255,-87.608 83.821,-87.683C85.46,-87.761 87.126,-87.671 88.754,-87.456C90.947,-87.165 93.154,-86.826 95.282,-86.243C97.145,-85.733 98.907,-84.858 100.713,-84.144C100.714,-84.036 100.714,-83.927 100.714,-83.818C98.751,-83.52 96.767,-83.319 94.831,-82.897C92.865,-82.469 90.944,-81.831 89.008,-81.269C87.246,-80.759 85.464,-80.3 83.738,-79.687C81.548,-78.91 79.339,-78.134 77.258,-77.112C74.602,-75.808 72.01,-74.35 69.498,-72.785C67.655,-71.637 65.971,-70.23 64.244,-68.901C62.674,-67.692 61.098,-66.483 59.606,-65.18C58.162,-63.918 56.751,-62.603 55.455,-61.193C53.703,-59.286 52.03,-57.301 50.408,-55.281C49.337,-53.947 48.379,-52.516 47.434,-51.087C46.07,-49.027 44.737,-46.946 43.446,-44.84C42.906,-43.961 42.467,-43.013 42.052,-42.066C41.492,-40.786 41.017,-39.47 40.474,-38.183C39.551,-35.992 38.585,-33.819 37.68,-31.62C37.458,-31.082 37.425,-30.469 37.265,-29.902C36.578,-27.457 35.696,-25.05 35.243,-22.564C34.946,-20.932 35.129,-19.173 35.338,-17.501C35.553,-15.783 36.002,-14.086 36.465,-12.413C36.705,-11.548 37.177,-10.744 37.594,-9.938C37.666,-9.797 37.983,-9.782 38.318,-9.661C36.863,-13.565 37.509,-17.47 37.737,-21.289C37.872,-23.565 38.862,-25.814 39.611,-28.026C40.816,-31.589 42.002,-35.17 43.459,-38.633C44.484,-41.066 45.917,-43.331 47.222,-45.642C48.481,-47.872 49.731,-50.113 51.13,-52.255C52.219,-53.922 53.478,-55.487 54.757,-57.019C55.95,-58.447 57.233,-59.805 58.541,-61.131C59.892,-62.501 61.279,-63.843 62.726,-65.109C64.39,-66.564 66.099,-67.975 67.863,-69.305C69.144,-70.271 70.541,-71.086 71.899,-71.948C73.509,-72.971 75.122,-73.989 76.755,-74.975C77.4,-75.365 78.088,-75.694 78.78,-75.995C80.169,-76.598 81.562,-77.194 82.975,-77.738C85.868,-78.851 88.742,-80.033 91.689,-80.983C93.747,-81.646 95.964,-81.816 98.019,-82.486C100.658,-83.346 103.332,-83.242 106.003,-83.14C109.907,-82.989 113.684,-82.196 117.036,-80.053C118.959,-78.824 120.806,-77.477 122.675,-76.165C122.811,-76.069 122.85,-75.834 123.067,-75.393C122.372,-75.591 121.895,-75.82 121.407,-75.848C119.974,-75.929 118.523,-76.067 117.103,-75.93C115.148,-75.742 113.177,-75.466 111.28,-74.971C107.762,-74.052 104.212,-73.177 100.897,-71.634C98.65,-70.588 96.392,-69.528 94.279,-68.242C92.392,-67.094 90.688,-65.642 88.923,-64.297C87.256,-63.027 85.604,-61.736 83.97,-60.424C83.532,-60.072 83.166,-59.623 82.797,-59.193C81.173,-57.302 79.515,-55.438 77.951,-53.498C75.27,-50.17 72.997,-46.565 71.078,-42.752C69.791,-40.194 68.578,-37.592 67.477,-34.949C66.356,-32.259 65.352,-29.516 64.417,-26.756C63.848,-25.076 63.471,-23.327 63.071,-21.595C62.709,-20.025 62.204,-18.44 62.174,-16.854C62.129,-14.478 62.278,-12.069 62.66,-9.725C62.943,-7.991 63.631,-6.296 64.347,-4.676C64.559,-4.197 65.483,-4.032 66.138,-3.693C65.617,-5.192 64.97,-6.393 64.808,-7.656C64.489,-10.133 64.292,-12.646 64.334,-15.14C64.36,-16.703 64.915,-18.256 65.225,-19.815C65.332,-20.357 65.355,-20.921 65.517,-21.444C66.371,-24.195 67.201,-26.956 68.149,-29.675C68.821,-31.602 69.603,-33.498 70.455,-35.354C71.377,-37.363 72.333,-39.371 73.46,-41.27C75.133,-44.087 76.946,-46.823 78.745,-49.563C79.605,-50.871 80.47,-52.201 81.512,-53.358C83.179,-55.208 84.966,-56.953 86.759,-58.684C87.936,-59.82 89.168,-60.911 90.457,-61.917C92.025,-63.14 93.621,-64.346 95.311,-65.39C97.501,-66.744 99.761,-67.999 102.059,-69.164C103.388,-69.837 104.825,-70.328 106.256,-70.762C108.821,-71.54 111.405,-72.263 114.006,-72.907C115.108,-73.179 116.349,-72.989 117.395,-73.37C119.283,-74.057 121.22,-73.958 123.067,-73.73C125.175,-73.471 127.378,-73.359 129.323,-72.18C130.375,-71.542 131.681,-71.328 132.75,-70.71C134.282,-69.825 135.886,-69.064 137.108,-67.649C138.225,-66.356 139.77,-65.436 140.895,-64.149C142.329,-62.509 143.536,-60.671 144.827,-58.907C145.334,-58.214 145.827,-57.509 146.281,-56.78C146.807,-55.935 147.288,-55.06 147.772,-54.189C147.803,-54.135 147.691,-54.001 147.66,-53.937C141.392,-58.649 134.476,-61.157 126.569,-60.365C127.542,-60.365 128.515,-60.379 129.488,-60.362C132.046,-60.319 134.471,-59.7 136.824,-58.711C138.129,-58.163 139.549,-57.856 140.792,-57.202C142.513,-56.295 144.171,-55.241 145.753,-54.106C147.177,-53.084 148.512,-51.923 149.791,-50.72C150.724,-49.842 151.517,-48.812 152.34,-47.823C152.927,-47.119 153.469,-46.377 154.012,-45.638C155.476,-43.643 156.943,-41.649 158.384,-39.637C159.673,-37.838 160.948,-36.028 162.19,-34.196C162.77,-33.341 163.348,-32.464 163.764,-31.525C164.662,-29.499 165.517,-27.449 166.272,-25.367C166.849,-23.776 167.154,-22.085 167.742,-20.499C168.88,-17.433 169.321,-14.232 169.96,-11.051C170.61,-7.812 170.627,-4.535 171.135,-1.315C171.849,3.218 171.771,7.756 171.786,12.302C171.79,13.714 171.841,15.176 171.503,16.523C171.212,17.684 170.56,18.851 169.779,19.77C168.551,21.217 167.121,22.503 165.695,23.763C165.109,24.281 164.267,24.494 163.618,24.954C162.681,25.619 162.73,26.079 163.684,26.681C163.874,26.801 164.051,26.942 164.394,27.187C165.813,26.138 167.38,25.104 168.801,23.898C170.724,22.268 172.207,20.317 172.264,17.636C172.278,16.977 172.143,16.315 172.076,15.652C172.753,15.843 173.436,15.925 174.01,16.22C175.25,16.856 176.643,17.393 177.594,18.348C179.067,19.829 178.623,21.882 178.376,23.721C177.953,26.869 176.433,29.606 174.22,31.763C172.606,33.337 170.911,34.926 168.755,35.916C166.274,37.054 163.94,38.509 161.479,39.696C160.052,40.384 158.504,40.822 157.005,41.359C155.072,42.051 153.137,42.736 151.198,43.408C150.379,43.691 149.546,43.931 148.61,44.225C148.582,43.924 148.525,43.594 148.524,43.264C148.516,40.664 148.637,38.057 148.485,35.466C148.35,33.154 149.278,31.908 151.7,30.762C151.908,30.664 152.1,30.53 152.222,30.457C150.669,26.12 149.141,21.854 147.51,17.3C147.352,18.243 147.184,18.936 147.129,19.638C146.932,22.134 146.799,24.634 146.584,27.128C146.518,27.902 146.304,28.671 146.079,29.419C146.021,29.614 145.672,29.727 145.45,29.866C144.852,30.243 144.037,30.476 143.692,31.012C142.735,32.497 141.245,32.86 139.735,33.21C137.965,33.621 136.175,33.948 134.389,34.291C133.81,34.403 133.218,34.443 132.633,34.531C129.669,34.977 126.705,35.421 123.742,35.878C122.101,36.131 120.465,36.426 118.821,36.663C118.077,36.771 117.318,36.776 116.568,36.843C112.171,37.238 107.773,37.619 103.379,38.044C101.554,38.221 99.738,38.494 98.234,38.684C98.803,39.136 99.603,39.788 100.426,40.411C100.556,40.509 100.789,40.501 100.971,40.491C105.543,40.236 110.12,40.056 114.682,39.685C117.762,39.434 120.823,38.936 123.886,38.505C125.842,38.23 127.79,37.888 129.737,37.551C131.993,37.161 134.252,36.785 136.494,36.326C138.463,35.924 140.409,35.415 142.515,34.918C142.515,38.828 142.593,42.543 142.424,46.246C142.4,46.752 141.184,47.28 140.45,47.663C137.895,48.995 135.256,50.17 132.752,51.589C130.35,52.951 128.117,54.608 125.733,56.007C124.319,56.837 122.793,57.511 121.255,58.091C117.826,59.385 114.366,60.602 110.901,61.799C108.565,62.605 106.21,63.362 103.843,64.07C101.159,64.874 98.462,65.639 95.752,66.348C92.81,67.116 89.852,67.822 86.891,68.512C84.971,68.959 83.036,69.335 81.104,69.729C79.122,70.134 77.145,70.57 75.15,70.904C72.454,71.354 69.743,71.717 67.04,72.124C64.978,72.435 62.924,72.802 60.856,73.066C57.585,73.484 54.309,73.872 51.028,74.206C48.661,74.446 46.285,74.598 43.91,74.748C42.082,74.863 40.25,74.991 38.421,74.978C35.27,74.956 32.11,74.945 28.97,74.717C25.257,74.449 21.558,73.967 17.856,73.557C15.097,73.252 12.338,72.944 9.587,72.579C7.555,72.31 5.533,71.964 3.512,71.621C0.814,71.164 -1.881,70.692 -4.573,70.198C-6.646,69.818 -8.727,69.461 -10.777,68.975C-13.519,68.323 -16.243,67.588 -18.958,66.83C-21.392,66.15 -23.855,65.523 -26.214,64.632C-29.211,63.499 -32.13,62.153 -35.059,60.844C-37.127,59.92 -39.196,58.981 -41.189,57.909C-42.676,57.109 -44.059,56.111 -45.456,55.153C-46.718,54.286 -47.881,53.264 -49.184,52.468C-52.909,50.195 -54.301,46.874 -52.788,42.893C-52.188,41.315 -51.206,39.824 -49.6,38.894C-47.255,37.537 -45.005,36.01 -42.632,34.705C-40.791,33.692 -38.812,32.931 -36.915,32.016C-35.07,31.127 -33.263,30.159 -31.416,29.277C-30.491,28.835 -29.514,28.5 -28.556,28.127C-26.633,27.379 -24.708,26.638 -22.745,25.879" style="fill-rule:nonzero;"/>
                        </g>
                        <g transform="matrix(1,0,0,1,235.059,167.284)">
                            <path d="M0,-60.891C0.929,-59.425 1.811,-57.936 1.678,-56.084C1.564,-54.499 1.705,-52.86 1.343,-51.339C0.921,-49.568 0.072,-47.899 -0.589,-46.185C-1.727,-43.235 -3.495,-40.734 -5.858,-38.628C-8.597,-36.189 -11.645,-34.22 -14.89,-32.542C-17.473,-31.206 -20.022,-29.789 -22.679,-28.617C-25.203,-27.503 -27.834,-26.621 -30.444,-25.711C-32.904,-24.853 -35.393,-24.079 -37.877,-23.289C-40.162,-22.563 -42.446,-21.833 -44.749,-21.168C-46.357,-20.703 -48.003,-20.374 -49.618,-19.93C-51.753,-19.344 -53.919,-18.824 -55.991,-18.057C-58.485,-17.133 -60.879,-15.94 -63.347,-14.941C-64.755,-14.372 -66.225,-13.957 -67.668,-13.475C-69.59,-12.832 -71.504,-12.165 -73.437,-11.559C-75.084,-11.043 -76.753,-10.596 -78.414,-10.123C-80.876,-9.421 -83.325,-8.664 -85.807,-8.04C-88.153,-7.451 -90.533,-6.999 -92.901,-6.497C-94.827,-6.088 -96.754,-5.681 -98.687,-5.3C-100.81,-4.882 -102.936,-4.483 -105.066,-4.098C-106.927,-3.761 -108.785,-3.394 -110.659,-3.15C-114.082,-2.703 -117.553,-2.532 -120.936,-1.889C-125.591,-1.006 -130.326,-1.277 -134.964,-0.653C-139.829,0 -144.663,-0.349 -149.506,-0.306C-152.416,-0.281 -155.329,-0.732 -158.242,-0.958C-160.523,-1.134 -162.811,-1.244 -165.087,-1.473C-167.063,-1.671 -169.027,-1.989 -170.995,-2.265C-171.814,-2.38 -172.628,-2.53 -173.446,-2.654C-175.6,-2.979 -177.762,-3.254 -179.906,-3.635C-181.79,-3.97 -183.653,-4.419 -185.524,-4.822C-187.378,-5.222 -189.244,-5.571 -191.078,-6.044C-193.65,-6.707 -196.22,-7.395 -198.75,-8.201C-201.487,-9.073 -204.185,-10.07 -206.885,-11.056C-209.223,-11.91 -211.61,-12.676 -213.847,-13.748C-217.052,-15.283 -220.205,-16.952 -223.258,-18.768C-225.811,-20.286 -228.261,-22.003 -230.618,-23.812C-232.118,-24.964 -233.74,-26.192 -234.418,-28.036C-235.428,-30.783 -235.26,-33.536 -233.794,-36.152C-233.368,-36.913 -233.042,-37.73 -232.671,-38.521C-232.56,-38.473 -232.449,-38.426 -232.338,-38.379C-232.382,-38.2 -232.38,-37.989 -232.477,-37.847C-234.123,-35.428 -234.015,-32.814 -233.009,-30.284C-232.541,-29.105 -231.542,-28.074 -230.602,-27.162C-229.551,-26.141 -228.333,-25.278 -227.119,-24.444C-225.64,-23.427 -224.098,-22.499 -222.568,-21.558C-221.469,-20.883 -220.383,-20.169 -219.223,-19.616C-216.972,-18.544 -214.69,-17.532 -212.388,-16.573C-209.694,-15.451 -206.996,-14.324 -204.243,-13.363C-201.714,-12.481 -199.115,-11.795 -196.536,-11.063C-194.982,-10.621 -193.411,-10.241 -191.841,-9.859C-189.298,-9.241 -186.759,-8.604 -184.2,-8.056C-182.854,-7.768 -181.468,-7.668 -180.104,-7.454C-178.12,-7.143 -176.144,-6.779 -174.158,-6.485C-171.343,-6.067 -168.525,-5.669 -165.703,-5.306C-163.369,-5.005 -161.026,-4.771 -158.688,-4.5C-157.784,-4.395 -156.884,-4.237 -155.978,-4.159C-153.671,-3.962 -151.365,-3.743 -149.053,-3.632C-146.182,-3.495 -143.306,-3.396 -140.432,-3.396C-137.558,-3.397 -134.676,-3.427 -131.813,-3.65C-128.277,-3.925 -124.756,-4.405 -121.231,-4.812C-117.839,-5.204 -114.438,-5.537 -111.064,-6.05C-109.058,-6.356 -107.111,-7.026 -105.113,-7.41C-103.332,-7.752 -101.511,-7.882 -99.721,-8.186C-97.638,-8.538 -95.567,-8.96 -93.497,-9.385C-91.655,-9.762 -89.81,-10.132 -87.991,-10.601C-85.968,-11.122 -83.982,-11.782 -81.964,-12.325C-79.837,-12.898 -77.675,-13.348 -75.56,-13.964C-74.356,-14.314 -73.225,-14.906 -72.046,-15.351C-71.574,-15.529 -71.049,-15.567 -70.571,-15.734C-67.409,-16.836 -64.254,-17.955 -61.097,-19.072C-59.611,-19.597 -58.116,-20.096 -56.646,-20.662C-54.276,-21.574 -52.159,-22.938 -50.087,-24.389C-48.932,-25.197 -47.742,-25.976 -46.494,-26.628C-43.284,-28.303 -40.069,-29.975 -36.788,-31.501C-34.632,-32.504 -32.369,-33.283 -30.132,-34.1C-27.992,-34.882 -25.799,-35.524 -23.672,-36.339C-21.446,-37.192 -19.273,-38.184 -17.072,-39.106C-15.762,-39.655 -14.386,-40.078 -13.144,-40.75C-11.549,-41.613 -10.053,-42.662 -8.524,-43.646C-7.915,-44.038 -7.381,-44.586 -6.727,-44.864C-4.92,-45.633 -4.074,-47.347 -2.868,-48.686C-1.216,-50.519 -0.289,-52.792 0.266,-55.165C0.708,-57.055 0.711,-58.99 0,-60.891" style="fill-rule:nonzero;"/>
                        </g>
                    </g>
                </g>
            </g>
        </g>
    </g>
</svg>
