<?xml version="1.0" encoding="UTF-8" standalone="no"?>
<!DOCTYPE svg PUBLIC "-//W3C//DTD SVG 1.1//EN" "http://www.w3.org/Graphics/SVG/1.1/DTD/svg11.dtd">
<svg width="100%" height="100%" viewBox="0 0 387 113" version="1.1" xmlns="http://www.w3.org/2000/svg" xmlns:xlink="http://www.w3.org/1999/xlink" xml:space="preserve" xmlns:serif="http://www.serif.com/" style="fill-rule:evenodd;clip-rule:evenodd;stroke-linecap:round;stroke-linejoin:round;stroke-miterlimit:1.5;">
    <g transform="matrix(1,0,0,1,-6374.8,-926.457)">
        <g transform="matrix(0.853342,0,0,0.853342,2776.67,16.5354)">
            <g transform="matrix(0.610811,0,0,0.585981,1670.17,428.316)">
                <path d="M4910,1120.58C4910,1103.7 4896.86,1090 4880.67,1090L4199.33,1090C4183.14,1090 4170,1103.7 4170,1120.58L4170,1281.42C4170,1298.3 4183.14,1312 4199.33,1312L4880.67,1312C4896.86,1312 4910,1298.3 4910,1281.42L4910,1120.58Z" style="fill:rgb(227,245,250);stroke:rgb(2,51,106);stroke-width:2.45px;"/>
            </g>
            <g transform="matrix(0.512064,0,0,0.37869,2185.27,663.543)">
                <g transform="matrix(1.48703,0,0,2.01077,-2052.18,-1138.12)">
                    <path d="M4218.4,1188.5L4218.4,1129.26L4234.07,1129.26C4240.99,1129.26 4246.5,1131.45 4250.61,1135.85C4254.72,1140.24 4256.82,1146.26 4256.9,1153.91L4256.9,1163.52C4256.9,1171.3 4254.84,1177.41 4250.73,1181.85C4246.62,1186.28 4240.96,1188.5 4233.74,1188.5L4218.4,1188.5ZM4230.37,1139.22L4230.37,1178.57L4233.95,1178.57C4237.94,1178.57 4240.74,1177.52 4242.37,1175.42C4244,1173.32 4244.85,1169.69 4244.94,1164.53L4244.94,1154.24C4244.94,1148.7 4244.16,1144.85 4242.62,1142.66C4241.07,1140.48 4238.44,1139.33 4234.72,1139.22L4230.37,1139.22Z" style="fill:rgb(0,22,130);fill-rule:nonzero;"/>
                </g>
                <g transform="matrix(1.48703,0,0,2.01077,-2052.18,-1138.12)">
                    <rect x="4266.01" y="1129.26" width="11.963" height="59.245" style="fill:rgb(0,22,130);fill-rule:nonzero;"/>
                </g>
                <g transform="matrix(1.48703,0,0,2.01077,-2052.18,-1138.12)">
                    <path d="M4329.45,1188.5L4317.48,1188.5L4299.99,1149.64L4299.99,1188.5L4288.03,1188.5L4288.03,1129.26L4299.99,1129.26L4317.53,1168.15L4317.53,1129.26L4329.45,1129.26L4329.45,1188.5Z" style="fill:rgb(0,22,130);fill-rule:nonzero;"/>
                </g>
                <g transform="matrix(1.48703,0,0,2.01077,-2052.18,-1138.12)">
                    <path d="M4368.06,1176.37L4351.75,1176.37L4348.57,1188.5L4335.92,1188.5L4354.43,1129.26L4365.38,1129.26L4384.01,1188.5L4371.24,1188.5L4368.06,1176.37ZM4354.35,1166.4L4365.42,1166.4L4359.88,1145.29L4354.35,1166.4Z" style="fill:rgb(0,22,130);fill-rule:nonzero;"/>
                </g>
                <g transform="matrix(1.48703,0,0,2.01077,-2052.18,-1138.12)">
                    <path d="M4420.11,1164.33L4401.51,1164.33L4401.51,1188.5L4389.55,1188.5L4389.55,1129.26L4422.34,1129.26L4422.34,1139.22L4401.51,1139.22L4401.51,1154.4L4420.11,1154.4L4420.11,1164.33Z" style="fill:rgb(0,22,130);fill-rule:nonzero;"/>
                </g>
                <g transform="matrix(1.48703,0,0,2.01077,-2052.18,-1138.12)">
                    <path d="M4441.14,1178.57L4462.14,1178.57L4462.14,1188.5L4429.18,1188.5L4429.18,1129.26L4441.14,1129.26L4441.14,1178.57Z" style="fill:rgb(0,22,130);fill-rule:nonzero;"/>
                </g>
                <g transform="matrix(1.48703,0,0,2.01077,-2052.18,-1138.12)">
                    <path d="M4508.16,1164.21C4508.16,1172.16 4506.28,1178.33 4502.52,1182.72C4498.77,1187.12 4493.55,1189.31 4486.88,1189.31C4480.23,1189.31 4475.01,1187.14 4471.21,1182.78C4467.41,1178.43 4465.49,1172.33 4465.44,1164.49L4465.44,1154.36C4465.44,1146.22 4467.32,1139.87 4471.09,1135.3C4474.86,1130.73 4480.1,1128.44 4486.8,1128.44C4493.39,1128.44 4498.58,1130.69 4502.38,1135.18C4506.18,1139.66 4508.11,1145.96 4508.16,1154.08L4508.16,1164.21ZM4496.16,1154.28C4496.16,1148.94 4495.4,1144.96 4493.88,1142.36C4492.36,1139.75 4490,1138.45 4486.8,1138.45C4483.62,1138.45 4481.28,1139.71 4479.76,1142.21C4478.24,1144.72 4477.45,1148.54 4477.4,1153.67L4477.4,1164.21C4477.4,1169.39 4478.17,1173.21 4479.72,1175.66C4481.26,1178.12 4483.65,1179.35 4486.88,1179.35C4490,1179.35 4492.32,1178.14 4493.84,1175.74C4495.36,1173.34 4496.13,1169.62 4496.16,1164.57L4496.16,1154.28Z" style="fill:rgb(0,22,130);fill-rule:nonzero;"/>
                </g>
                <g transform="matrix(1.48703,0,0,2.01077,-2052.18,-1138.12)">
                    <path d="M4555.24,1166.49L4560.85,1129.26L4572.69,1129.26L4562.15,1188.5L4550.15,1188.5L4543.23,1153.59L4536.4,1188.5L4524.35,1188.5L4513.77,1129.26L4525.7,1129.26L4531.27,1166.45L4538.23,1129.26L4548.28,1129.26L4555.24,1166.49Z" style="fill:rgb(0,22,130);fill-rule:nonzero;"/>
                </g>
            </g>
            <g transform="matrix(0.0528277,0,0,0.0142922,4345.82,1151.14)">
                <g transform="matrix(10.3314,0,0,38.1875,0,0)">
                    <path d="M17.31,17.472L6.884,17.472L6.884,27.919L19.031,27.919L19.031,31.098L3.179,31.098L3.179,1.62L18.829,1.62L18.829,4.819L6.884,4.819L6.884,14.294L17.31,14.294L17.31,17.472Z" style="fill:rgb(0,72,138);fill-rule:nonzero;"/>
                </g>
                <g transform="matrix(10.3314,0,0,38.1875,0,0)">
                    <path d="M43.022,31.098L39.297,31.098L27.494,8.382L27.494,31.098L23.769,31.098L23.769,1.62L27.494,1.62L39.338,24.437L39.338,1.62L43.022,1.62L43.022,31.098Z" style="fill:rgb(0,72,138);fill-rule:nonzero;"/>
                </g>
                <g transform="matrix(10.3314,0,0,38.1875,0,0)">
                    <path d="M63.572,17.472L53.145,17.472L53.145,27.919L65.293,27.919L65.293,31.098L49.44,31.098L49.44,1.62L65.09,1.62L65.09,4.819L53.145,4.819L53.145,14.294L63.572,14.294L63.572,17.472Z" style="fill:rgb(0,72,138);fill-rule:nonzero;"/>
                </g>
                <g transform="matrix(10.3314,0,0,38.1875,0,0)">
                    <path d="M78.939,19.173L73.756,19.173L73.756,31.098L70.03,31.098L70.03,1.62L78.291,1.62C81.179,1.62 83.366,2.372 84.85,3.877C86.335,5.382 87.078,7.585 87.078,10.487C87.078,12.309 86.676,13.899 85.873,15.255C85.07,16.612 83.933,17.634 82.461,18.323L88.171,30.855L88.171,31.098L84.182,31.098L78.939,19.173ZM73.756,15.994L78.25,15.994C79.802,15.994 81.041,15.495 81.965,14.496C82.89,13.497 83.352,12.161 83.352,10.487C83.352,6.708 81.638,4.819 78.21,4.819L73.756,4.819L73.756,15.994Z" style="fill:rgb(0,72,138);fill-rule:nonzero;"/>
                </g>
                <g transform="matrix(10.3314,0,0,38.1875,0,0)">
                    <path d="M110.482,27.433L109.834,28.243C107.971,30.416 105.245,31.503 101.655,31.503C98.469,31.503 95.969,30.446 94.153,28.334C92.338,26.222 91.41,23.236 91.37,19.375L91.37,13.585C91.37,9.455 92.196,6.361 93.85,4.302C95.503,2.244 97.977,1.215 101.27,1.215C104.077,1.215 106.274,1.998 107.86,3.563C109.446,5.129 110.32,7.363 110.482,10.265L106.777,10.265C106.628,8.429 106.119,6.995 105.248,5.962C104.378,4.93 103.058,4.414 101.29,4.414C99.171,4.414 97.619,5.105 96.634,6.489C95.648,7.872 95.135,10.082 95.095,13.119L95.095,19.132C95.095,22.102 95.662,24.379 96.796,25.965C97.929,27.551 99.556,28.344 101.675,28.344C103.672,28.344 105.191,27.858 106.23,26.887L106.777,26.38L106.777,19.578L101.391,19.578L101.391,16.419L110.482,16.419L110.482,27.433Z" style="fill:rgb(0,72,138);fill-rule:nonzero;"/>
                </g>
                <g transform="matrix(10.3314,0,0,38.1875,0,0)">
                    <path d="M124.208,16.419L130.242,1.62L134.433,1.62L126.051,20.104L126.051,31.098L122.346,31.098L122.346,20.104L113.964,1.62L118.175,1.62L124.208,16.419Z" style="fill:rgb(0,72,138);fill-rule:nonzero;"/>
                </g>
                <g transform="matrix(10.3314,0,0,38.1875,0,0)">
                    <path d="M160.651,23.647C160.651,22.176 160.253,21.049 159.457,20.266C158.66,19.483 157.223,18.721 155.144,17.978C153.066,17.236 151.476,16.457 150.376,15.64C149.276,14.823 148.453,13.892 147.906,12.846C147.36,11.8 147.086,10.602 147.086,9.252C147.086,6.917 147.866,4.994 149.425,3.482C150.984,1.971 153.025,1.215 155.549,1.215C157.277,1.215 158.815,1.603 160.165,2.379C161.515,3.155 162.554,4.231 163.283,5.608C164.012,6.985 164.376,8.497 164.376,10.143L160.651,10.143C160.651,8.321 160.212,6.911 159.335,5.912C158.458,4.913 157.196,4.414 155.549,4.414C154.051,4.414 152.89,4.832 152.067,5.669C151.243,6.506 150.832,7.68 150.832,9.192C150.832,10.433 151.277,11.473 152.168,12.309C153.059,13.146 154.436,13.895 156.298,14.557C159.2,15.515 161.275,16.696 162.524,18.1C163.772,19.504 164.397,21.339 164.397,23.607C164.397,25.996 163.62,27.909 162.068,29.346C160.516,30.784 158.404,31.503 155.731,31.503C154.017,31.503 152.435,31.128 150.984,30.379C149.533,29.63 148.392,28.577 147.562,27.221C146.732,25.864 146.317,24.309 146.317,22.554L150.042,22.554C150.042,24.376 150.552,25.793 151.571,26.806C152.59,27.818 153.977,28.324 155.731,28.324C157.364,28.324 158.593,27.906 159.416,27.069C160.239,26.232 160.651,25.091 160.651,23.647Z" style="fill:rgb(0,72,138);fill-rule:nonzero;"/>
                </g>
                <g transform="matrix(10.3314,0,0,38.1875,0,0)">
                    <path d="M176.929,16.419L182.962,1.62L187.153,1.62L178.771,20.104L178.771,31.098L175.066,31.098L175.066,20.104L166.684,1.62L170.895,1.62L176.929,16.419Z" style="fill:rgb(0,72,138);fill-rule:nonzero;"/>
                </g>
                <g transform="matrix(10.3314,0,0,38.1875,0,0)">
                    <path d="M203.552,23.647C203.552,22.176 203.154,21.049 202.358,20.266C201.561,19.483 200.124,18.721 198.045,17.978C195.967,17.236 194.377,16.457 193.277,15.64C192.177,14.823 191.354,13.892 190.807,12.846C190.261,11.8 189.987,10.602 189.987,9.252C189.987,6.917 190.767,4.994 192.326,3.482C193.885,1.971 195.926,1.215 198.45,1.215C200.178,1.215 201.716,1.603 203.066,2.379C204.416,3.155 205.455,4.231 206.184,5.608C206.913,6.985 207.277,8.497 207.277,10.143L203.552,10.143C203.552,8.321 203.113,6.911 202.236,5.912C201.359,4.913 200.097,4.414 198.45,4.414C196.952,4.414 195.791,4.832 194.968,5.669C194.144,6.506 193.733,7.68 193.733,9.192C193.733,10.433 194.178,11.473 195.069,12.309C195.96,13.146 197.337,13.895 199.199,14.557C202.101,15.515 204.176,16.696 205.425,18.1C206.673,19.504 207.298,21.339 207.298,23.607C207.298,25.996 206.521,27.909 204.969,29.346C203.417,30.784 201.305,31.503 198.632,31.503C196.918,31.503 195.336,31.128 193.885,30.379C192.434,29.63 191.293,28.577 190.463,27.221C189.633,25.864 189.218,24.309 189.218,22.554L192.943,22.554C192.943,24.376 193.453,25.793 194.472,26.806C195.491,27.818 196.878,28.324 198.632,28.324C200.265,28.324 201.494,27.906 202.317,27.069C203.14,26.232 203.552,25.091 203.552,23.647Z" style="fill:rgb(0,72,138);fill-rule:nonzero;"/>
                </g>
                <g transform="matrix(10.3314,0,0,38.1875,0,0)">
                    <path d="M229.386,4.819L221.632,4.819L221.632,31.098L217.927,31.098L217.927,4.819L210.193,4.819L210.193,1.62L229.386,1.62L229.386,4.819Z" style="fill:rgb(0,72,138);fill-rule:nonzero;"/>
                </g>
                <g transform="matrix(10.3314,0,0,38.1875,0,0)">
                    <path d="M247.87,17.472L237.444,17.472L237.444,27.919L249.591,27.919L249.591,31.098L233.739,31.098L233.739,1.62L249.389,1.62L249.389,4.819L237.444,4.819L237.444,14.294L247.87,14.294L247.87,17.472Z" style="fill:rgb(0,72,138);fill-rule:nonzero;"/>
                </g>
                <g transform="matrix(10.3314,0,0,38.1875,0,0)">
                    <path d="M259.107,1.62L266.8,25.672L274.494,1.62L279.272,1.62L279.272,31.098L275.567,31.098L275.567,19.618L275.911,8.119L268.197,31.098L265.363,31.098L257.69,8.2L258.034,19.618L258.034,31.098L254.329,31.098L254.329,1.62L259.107,1.62Z" style="fill:rgb(0,72,138);fill-rule:nonzero;"/>
                </g>
                <g transform="matrix(10.3314,0,0,38.1875,0,0)">
                    <path d="M304.053,19.173L298.87,19.173L298.87,31.098L295.144,31.098L295.144,1.62L303.405,1.62C306.293,1.62 308.48,2.372 309.964,3.877C311.449,5.382 312.191,7.585 312.191,10.487C312.191,12.309 311.79,13.899 310.987,15.255C310.184,16.612 309.047,17.634 307.575,18.323L313.285,30.855L313.285,31.098L309.296,31.098L304.053,19.173ZM298.87,15.994L303.364,15.994C304.916,15.994 306.155,15.495 307.079,14.496C308.004,13.497 308.466,12.161 308.466,10.487C308.466,6.708 306.752,4.819 303.324,4.819L298.87,4.819L298.87,15.994Z" style="fill:rgb(0,72,138);fill-rule:nonzero;"/>
                </g>
                <g transform="matrix(10.3314,0,0,38.1875,0,0)">
                    <path d="M331.283,17.472L320.857,17.472L320.857,27.919L333.004,27.919L333.004,31.098L317.152,31.098L317.152,1.62L332.802,1.62L332.802,4.819L320.857,4.819L320.857,14.294L331.283,14.294L331.283,17.472Z" style="fill:rgb(0,72,138);fill-rule:nonzero;"/>
                </g>
                <g transform="matrix(10.3314,0,0,38.1875,0,0)">
                    <path d="M356.226,21.744C356.064,24.902 355.177,27.318 353.564,28.992C351.951,30.666 349.673,31.503 346.731,31.503C343.775,31.503 341.426,30.379 339.685,28.132C337.944,25.884 337.074,22.837 337.074,18.991L337.074,13.646C337.074,9.813 337.968,6.782 339.756,4.555C341.545,2.328 343.984,1.215 347.075,1.215C349.923,1.215 352.126,2.068 353.685,3.776C355.244,5.483 356.091,7.923 356.226,11.095L352.481,11.095C352.319,8.692 351.813,6.978 350.962,5.952C350.112,4.926 348.816,4.414 347.075,4.414C345.064,4.414 343.519,5.2 342.439,6.772C341.359,8.345 340.819,10.649 340.819,13.686L340.819,19.092C340.819,22.075 341.322,24.363 342.327,25.955C343.333,27.548 344.801,28.344 346.731,28.344C348.661,28.344 350.051,27.865 350.902,26.907C351.752,25.948 352.278,24.228 352.481,21.744L356.226,21.744Z" style="fill:rgb(0,72,138);fill-rule:nonzero;"/>
                </g>
                <g transform="matrix(10.3314,0,0,38.1875,0,0)">
                    <path d="M378.821,1.62L378.821,22.574C378.794,25.368 377.984,27.555 376.391,29.134C374.798,30.713 372.578,31.503 369.73,31.503C366.815,31.503 364.588,30.73 363.049,29.184C361.51,27.639 360.728,25.436 360.701,22.574L360.701,1.62L364.385,1.62L364.385,22.432C364.385,24.417 364.807,25.898 365.651,26.876C366.494,27.855 367.854,28.344 369.73,28.344C371.62,28.344 372.986,27.855 373.83,26.876C374.674,25.898 375.095,24.417 375.095,22.432L375.095,1.62L378.821,1.62Z" style="fill:rgb(0,72,138);fill-rule:nonzero;"/>
                </g>
                <g transform="matrix(10.3314,0,0,38.1875,0,0)">
                    <path d="M388.235,19.558L388.235,31.098L384.53,31.098L384.53,1.62L393.924,1.62C396.664,1.62 398.817,2.44 400.382,4.08C401.948,5.719 402.731,7.903 402.731,10.629C402.731,13.464 401.985,15.647 400.494,17.179C399.002,18.711 396.9,19.504 394.187,19.558L388.235,19.558ZM388.235,16.379L393.924,16.379C395.571,16.379 396.833,15.886 397.71,14.901C398.587,13.916 399.026,12.505 399.026,10.67C399.026,8.901 398.574,7.484 397.67,6.418C396.765,5.352 395.523,4.819 393.944,4.819L388.235,4.819L388.235,16.379Z" style="fill:rgb(0,72,138);fill-rule:nonzero;"/>
                </g>
                <g transform="matrix(10.3314,0,0,38.1875,0,0)">
                    <path d="M421.641,17.472L411.214,17.472L411.214,27.919L423.362,27.919L423.362,31.098L407.509,31.098L407.509,1.62L423.159,1.62L423.159,4.819L411.214,4.819L411.214,14.294L421.641,14.294L421.641,17.472Z" style="fill:rgb(0,72,138);fill-rule:nonzero;"/>
                </g>
                <g transform="matrix(10.3314,0,0,38.1875,0,0)">
                    <path d="M437.007,19.173L431.824,19.173L431.824,31.098L428.099,31.098L428.099,1.62L436.359,1.62C439.248,1.62 441.434,2.372 442.919,3.877C444.404,5.382 445.146,7.585 445.146,10.487C445.146,12.309 444.745,13.899 443.941,15.255C443.138,16.612 442.001,17.634 440.53,18.323L446.239,30.855L446.239,31.098L442.251,31.098L437.007,19.173ZM431.824,15.994L436.319,15.994C437.871,15.994 439.109,15.495 440.034,14.496C440.959,13.497 441.421,12.161 441.421,10.487C441.421,6.708 439.707,4.819 436.278,4.819L431.824,4.819L431.824,15.994Z" style="fill:rgb(0,72,138);fill-rule:nonzero;"/>
                </g>
                <g transform="matrix(10.3314,0,0,38.1875,0,0)">
                    <path d="M463.853,23.404L453.892,23.404L451.605,31.098L447.798,31.098L457.294,1.62L460.472,1.62L469.988,31.098L466.182,31.098L463.853,23.404ZM454.864,20.205L462.902,20.205L458.873,6.803L454.864,20.205Z" style="fill:rgb(0,72,138);fill-rule:nonzero;"/>
                </g>
                <g transform="matrix(10.3314,0,0,38.1875,0,0)">
                    <path d="M488.614,4.819L480.86,4.819L480.86,31.098L477.155,31.098L477.155,4.819L469.421,4.819L469.421,1.62L488.614,1.62L488.614,4.819Z" style="fill:rgb(0,72,138);fill-rule:nonzero;"/>
                </g>
                <g transform="matrix(10.3314,0,0,38.1875,0,0)">
                    <rect x="493.129" y="1.62" width="3.705" height="29.478" style="fill:rgb(0,72,138);fill-rule:nonzero;"/>
                </g>
                <g transform="matrix(10.3314,0,0,38.1875,0,0)">
                    <path d="M522.506,18.95C522.506,22.972 521.649,26.07 519.934,28.243C518.22,30.416 515.784,31.503 512.626,31.503C509.589,31.503 507.19,30.446 505.428,28.334C503.667,26.222 502.752,23.236 502.685,19.375L502.685,13.828C502.685,9.887 503.555,6.799 505.297,4.565C507.038,2.332 509.467,1.215 512.585,1.215C515.689,1.215 518.109,2.284 519.843,4.424C521.578,6.563 522.465,9.617 522.506,13.585L522.506,18.95ZM518.801,13.787C518.801,10.67 518.291,8.351 517.272,6.833C516.253,5.315 514.691,4.555 512.585,4.555C510.547,4.555 509.005,5.325 507.959,6.863C506.913,8.402 506.383,10.67 506.37,13.666L506.37,18.95C506.37,21.96 506.893,24.255 507.939,25.834C508.985,27.413 510.547,28.203 512.626,28.203C514.704,28.203 516.243,27.474 517.242,26.016C518.24,24.558 518.76,22.324 518.801,19.315L518.801,13.787Z" style="fill:rgb(0,72,138);fill-rule:nonzero;"/>
                </g>
                <g transform="matrix(10.3314,0,0,38.1875,0,0)">
                    <path d="M547.489,31.098L543.764,31.098L531.96,8.382L531.96,31.098L528.235,31.098L528.235,1.62L531.96,1.62L543.804,24.437L543.804,1.62L547.489,1.62L547.489,31.098Z" style="fill:rgb(0,72,138);fill-rule:nonzero;"/>
                </g>
            </g>
            <g transform="matrix(4.98554,0,0,4.98554,4286.65,1146.23)">
                <path d="M0,-4.224C0.62,-4.365 1.179,-4.492 1.738,-4.619C2.109,-4.703 2.478,-4.8 2.853,-4.864C2.973,-4.884 3.157,-4.854 3.225,-4.779C3.291,-4.708 3.291,-4.53 3.241,-4.432C1.956,-1.867 0.661,0.694 -0.633,3.255C-0.737,3.461 -0.91,3.542 -1.097,3.477C-1.332,3.395 -1.319,3.228 -1.271,3.047C-0.812,1.309 -0.352,-0.429 0.107,-2.166C0.116,-2.201 0.121,-2.237 0.135,-2.307C-0.045,-2.269 -0.207,-2.237 -0.367,-2.2C-1.14,-2.022 -1.911,-1.843 -2.683,-1.665C-2.736,-1.653 -2.79,-1.641 -2.844,-1.635C-3.129,-1.602 -3.29,-1.768 -3.222,-2.026C-2.848,-3.449 -2.473,-4.871 -2.098,-6.294C-1.996,-6.679 -1.888,-7.063 -1.797,-7.451C-1.744,-7.674 -1.603,-7.765 -1.367,-7.764C-0.617,-7.762 0.133,-7.761 0.884,-7.764C1.224,-7.766 1.335,-7.546 1.228,-7.295C0.835,-6.369 0.475,-5.431 0.103,-4.497C0.074,-4.425 0.048,-4.35 0,-4.224" style="fill:rgb(219,143,23);fill-rule:nonzero;"/>
            </g>
            <g transform="matrix(1.21659,0,0,1.21659,-2284.48,-539.068)">
                <g transform="matrix(0.844345,0,0,0.844345,1716.74,290.324)">
                    <path d="M4390.28,1253.72C4397.52,1260.96 4402,1270.96 4402,1282C4402,1304.08 4384.08,1322 4362,1322C4339.92,1322 4322,1304.08 4322,1282C4322,1259.92 4339.92,1242 4362,1242" style="fill:none;stroke:rgb(219,143,23);stroke-width:7.13px;"/>
                </g>
                <path d="M5422,1358L5423.65,1348.9L5433,1350" style="fill:none;stroke:rgb(219,143,23);stroke-width:6.02px;"/>
            </g>
        </g>
    </g>
</svg>
