<?xml version="1.0" encoding="UTF-8" standalone="no"?>
<!DOCTYPE svg PUBLIC "-//W3C//DTD SVG 1.1//EN" "http://www.w3.org/Graphics/SVG/1.1/DTD/svg11.dtd">
<svg width="100%" height="100%" viewBox="0 0 235 235" version="1.1" xmlns="http://www.w3.org/2000/svg" xmlns:xlink="http://www.w3.org/1999/xlink" xml:space="preserve" xmlns:serif="http://www.serif.com/" style="fill-rule:evenodd;clip-rule:evenodd;stroke-linecap:round;stroke-linejoin:round;stroke-miterlimit:10;">
    <g transform="matrix(1,0,0,1,-10264.2,-6247.74)">
        <g transform="matrix(2,0,0,2,9558.62,9.56113e-14)">
            <g transform="matrix(0.402884,0,0,0.402863,-162.242,2495.38)">
                <g transform="matrix(6.15103,0,0,6.15103,1304.7,1642.03)">
                    <path d="M0,20.709C0,20.833 0.1,20.933 0.224,20.933M0,17.306L0,20.716M1.59,17.306L0,17.306M2.457,16.396L1.59,17.306M2.905,16.396L2.457,16.396M3.772,17.306L2.905,16.396M4.09,20.948L4.552,20.485M4.552,20.485L4.552,17.306M0.217,20.948L4.09,20.948M4.552,17.306L3.772,17.306M9.04,-9.068C8.916,-9.068 8.815,-8.968 8.815,-8.845M12.457,-9.054L9.032,-9.054M12.457,-7.464L12.457,-9.054M13.368,-6.597L12.457,-7.464M13.368,-6.149L13.368,-6.597M12.457,-5.282L13.368,-6.149M8.815,-4.964L9.264,-4.501M9.264,-4.501L12.457,-4.501M8.815,-8.837L8.815,-4.964M12.457,-4.501L12.457,-5.282M38.817,-0.029C38.817,-0.153 38.717,-0.253 38.593,-0.253M38.817,3.403L38.817,-0.022M37.228,3.403L38.817,3.403M36.36,4.313L37.228,3.403M35.898,4.313L36.36,4.313M35.045,3.403L35.898,4.313M34.728,-0.238L34.265,0.209M34.265,0.209L34.265,3.403M38.586,-0.238L34.728,-0.238M34.265,3.403L35.045,3.403M29.777,29.749C29.901,29.749 30.001,29.648 30.001,29.525M26.36,29.763L29.77,29.763M26.36,28.173L26.36,29.763M25.449,27.306L26.36,28.173M25.449,26.844L25.449,27.306M26.36,25.991L25.449,26.844M30.001,25.673L29.539,25.211M29.539,25.211L26.36,25.211M30.001,29.532L30.001,25.673M26.36,25.211L26.36,25.991M42.965,3.707L37.271,3.707M42.965,8.259L42.965,3.707M35.45,8.259L42.965,8.259M34.539,7.349L35.45,8.259M34.077,7.349L34.539,7.349M33.167,8.259L34.077,7.349M27.487,8.259L33.167,8.259M27.487,3.707L27.487,8.259M34.987,3.707L27.487,3.707M35.898,4.617L34.987,3.707M36.36,4.617L35.898,4.617M37.271,3.707L36.36,4.617M35.226,6.424C35.477,6.424 35.681,6.22 35.681,5.968C35.681,5.717 35.477,5.513 35.226,5.513C34.975,5.513 34.771,5.717 34.771,5.968C34.771,6.22 34.975,6.424 35.226,6.424M35.226,6.38C35.453,6.38 35.638,6.196 35.638,5.968C35.638,5.741 35.453,5.557 35.226,5.557C34.999,5.557 34.814,5.741 34.814,5.968C34.814,6.196 34.999,6.38 35.226,6.38M12.761,-13.202L12.761,-7.508M17.313,-5.687L17.313,-13.202M16.402,-4.776L17.313,-5.687M16.402,-4.329L16.402,-4.776M17.313,-3.418L16.402,-4.329M17.313,2.276L17.313,-3.418M12.761,2.276L17.313,2.276M12.761,-5.239L12.761,2.276M13.671,-6.149L12.761,-5.239M13.671,-6.597L13.671,-6.149M12.761,-7.508L13.671,-6.597M15.037,-5.022C15.288,-5.022 15.492,-5.226 15.492,-5.477C15.492,-5.728 15.288,-5.932 15.037,-5.932C14.785,-5.932 14.582,-5.728 14.582,-5.477C14.582,-5.226 14.785,-5.022 15.037,-5.022M15.037,-5.065C15.265,-5.065 15.449,-5.249 15.449,-5.477C15.449,-5.705 15.265,-5.889 15.037,-5.889C14.809,-5.889 14.625,-5.705 14.625,-5.477C14.625,-5.249 14.809,-5.065 15.037,-5.065M-4.147,17.002L1.546,17.002M-4.147,12.45L-4.147,17.002M3.367,12.45L-4.147,12.45M4.278,13.361L3.367,12.45M4.726,13.361L4.278,13.361M5.636,12.45L4.726,13.361M11.33,12.45L5.636,12.45M11.33,17.002L11.33,12.45M3.815,17.002L11.33,17.002M2.905,16.092L3.815,17.002M2.457,16.092L2.905,16.092M1.546,17.002L2.457,16.092M3.591,15.167C3.843,15.167 4.046,14.963 4.046,14.711C4.046,14.46 3.843,14.256 3.591,14.256C3.34,14.256 3.136,14.46 3.136,14.711C3.136,14.963 3.34,15.167 3.591,15.167M3.591,15.124C3.818,15.124 4.003,14.939 4.003,14.711C4.003,14.484 3.818,14.3 3.591,14.3C3.364,14.3 3.179,14.484 3.179,14.711C3.179,14.939 3.364,15.124 3.591,15.124M38.181,8.49L32.849,8.49M33.679,10.6C33.971,10.6 34.207,10.364 34.207,10.073C34.207,9.782 33.971,9.545 33.679,9.545C33.388,9.545 33.152,9.782 33.152,10.073C33.152,10.364 33.388,10.6 33.679,10.6M38.947,14.864L38.181,14.864M38.947,14.864L38.947,8.49M38.947,8.49L38.181,8.49M38.181,8.49L38.181,14.083M32.849,11.265L38.181,14.083M32.849,8.49L32.849,11.265M32.849,8.49L32.357,8.49M32.357,8.49L32.357,11.669M32.357,11.669L38.181,14.864M17.544,-8.418L17.544,-3.1M19.141,-3.389C19.433,-3.389 19.668,-3.625 19.668,-3.916C19.668,-4.208 19.433,-4.444 19.141,-4.444C18.85,-4.444 18.614,-4.208 18.614,-3.916C18.614,-3.625 18.85,-3.389 19.141,-3.389M23.917,-9.198L23.917,-8.418M23.917,-9.198L17.544,-9.198M17.544,-9.198L17.544,-8.418M17.544,-8.418L23.137,-8.418M20.319,-3.1L23.137,-8.418M17.544,-3.1L20.319,-3.1M17.544,-3.1L17.544,-2.594M17.544,-2.594L20.724,-2.594M20.724,-2.594L23.917,-8.418M0.636,12.219L5.954,12.219M5.138,11.149C5.429,11.149 5.665,10.913 5.665,10.622C5.665,10.331 5.429,10.095 5.138,10.095C4.846,10.095 4.61,10.331 4.61,10.622C4.61,10.913 4.846,11.149 5.138,11.149M-0.145,5.846L0.636,5.846M-0.145,5.846L-0.145,12.219M-0.145,12.219L0.636,12.219M0.636,12.219L0.636,6.626M5.954,9.444L0.636,6.626M5.954,12.219L5.954,9.444M5.954,12.219L6.46,12.219M6.46,12.219L6.46,9.04M6.46,9.04L0.636,5.846M21.273,29.127L21.273,23.794M19.69,25.139C19.981,25.139 20.218,24.902 20.218,24.611C20.218,24.32 19.981,24.084 19.69,24.084C19.399,24.084 19.163,24.32 19.163,24.611C19.163,24.902 19.399,25.139 19.69,25.139M14.899,29.893L14.899,29.127M14.899,29.893L21.273,29.893M21.273,29.893L21.273,29.127M21.273,29.127L15.68,29.127M18.498,23.794L15.68,29.127M21.273,23.794L18.498,23.794M21.273,23.794L21.273,23.303M21.273,23.303L18.094,23.303M18.094,23.303L14.899,29.127M26.056,33.911L26.056,28.217M21.504,33.911L26.056,33.911M21.504,26.396L21.504,33.911M22.415,25.485L21.504,26.396M22.415,25.023L22.415,25.485M21.504,24.112L22.415,25.023M21.504,18.433L21.504,24.112M26.056,18.433L21.504,18.433M26.056,25.934L26.056,18.433M25.146,26.844L26.056,25.934M25.146,27.306L25.146,26.844M26.056,28.217L25.146,27.306M23.78,26.613C24.031,26.613 24.235,26.409 24.235,26.158C24.235,25.906 24.031,25.702 23.78,25.702C23.529,25.702 23.325,25.906 23.325,26.158C23.325,26.409 23.529,26.613 23.78,26.613M23.78,26.569C24.008,26.569 24.192,26.385 24.192,26.158C24.192,25.93 24.008,25.746 23.78,25.746C23.553,25.746 23.368,25.93 23.368,26.158C23.368,26.385 23.553,26.569 23.78,26.569M27.386,10.355L22.819,10.355M11.431,10.355L15.998,10.355M27.386,10.347C27.386,5.946 23.817,2.377 19.416,2.377C15.014,2.377 11.446,5.946 11.446,10.347M25.515,7.276C25.766,7.276 25.97,7.073 25.97,6.821C25.97,6.57 25.766,6.366 25.515,6.366C25.263,6.366 25.059,6.57 25.059,6.821C25.059,7.073 25.263,7.276 25.515,7.276M25.515,7.118C25.678,7.118 25.811,6.985 25.811,6.821C25.811,6.658 25.678,6.525 25.515,6.525C25.351,6.525 25.218,6.658 25.218,6.821C25.218,6.985 25.351,7.118 25.515,7.118M13.303,7.276C13.554,7.276 13.758,7.073 13.758,6.821C13.758,6.57 13.554,6.366 13.303,6.366C13.051,6.366 12.848,6.57 12.848,6.821C12.848,7.073 13.051,7.276 13.303,7.276M13.303,7.118C13.466,7.118 13.599,6.985 13.599,6.821C13.599,6.658 13.466,6.525 13.303,6.525C13.139,6.525 13.006,6.658 13.006,6.821C13.006,6.985 13.139,7.118 13.303,7.118M19.416,3.75C19.667,3.75 19.871,3.546 19.871,3.295C19.871,3.043 19.667,2.84 19.416,2.84C19.164,2.84 18.96,3.043 18.96,3.295C18.96,3.546 19.164,3.75 19.416,3.75M19.416,3.591C19.579,3.591 19.712,3.459 19.712,3.295C19.712,3.131 19.579,2.999 19.416,2.999C19.252,2.999 19.12,3.131 19.12,3.295C19.12,3.459 19.252,3.591 19.416,3.591M27.386,10.355L22.819,10.355M11.431,10.355L15.998,10.355M11.446,10.348C11.446,14.75 15.015,18.318 19.416,18.317C23.818,18.317 27.386,14.749 27.386,10.347M25.515,14.329C25.766,14.329 25.97,14.125 25.97,13.874C25.97,13.622 25.766,13.418 25.515,13.418C25.263,13.418 25.059,13.622 25.059,13.874C25.059,14.125 25.263,14.329 25.515,14.329M25.515,14.17C25.678,14.17 25.811,14.037 25.811,13.874C25.811,13.71 25.678,13.577 25.515,13.577C25.351,13.577 25.218,13.71 25.218,13.874C25.218,14.037 25.351,14.17 25.515,14.17M13.303,14.329C13.554,14.329 13.758,14.125 13.758,13.874C13.758,13.622 13.554,13.418 13.303,13.418C13.051,13.418 12.848,13.622 12.848,13.874C12.848,14.125 13.051,14.329 13.303,14.329M13.303,14.17C13.466,14.17 13.599,14.037 13.599,13.874C13.599,13.71 13.466,13.577 13.303,13.577C13.139,13.577 13.006,13.71 13.006,13.874C13.006,14.037 13.139,14.17 13.303,14.17M19.416,17.855C19.667,17.855 19.871,17.651 19.871,17.4C19.871,17.148 19.667,16.945 19.416,16.945C19.164,16.945 18.96,17.148 18.96,17.4C18.96,17.651 19.164,17.855 19.416,17.855M19.416,17.696C19.579,17.696 19.712,17.563 19.712,17.4C19.712,17.236 19.579,17.104 19.416,17.104C19.252,17.104 19.12,17.236 19.12,17.4C19.12,17.563 19.252,17.696 19.416,17.696M20.143,12.973C21.456,12.609 22.298,11.331 22.115,9.98C21.931,8.63 20.778,7.623 19.416,7.624C18.053,7.624 16.899,8.631 16.716,9.981C16.533,11.332 17.376,12.609 18.689,12.973M19.416,13.765C21.303,13.765 22.833,12.235 22.833,10.347C22.833,8.46 21.303,6.93 19.416,6.93C17.528,6.93 15.998,8.46 15.998,10.347C15.998,12.235 17.528,13.765 19.416,13.765M20.146,12.746C21.334,12.385 22.079,11.208 21.896,9.978C21.713,8.75 20.658,7.84 19.416,7.84C18.173,7.84 17.118,8.75 16.936,9.979C16.753,11.208 17.498,12.385 18.687,12.747M20.131,12.667L18.671,12.667M18.671,12.985L18.7,12.985L18.715,13L18.758,13L18.787,13.014L18.816,13.014L18.845,13.028L18.888,13.028L18.917,13.042L18.975,13.042L19.004,13.057L19.062,13.057L19.091,13.071L19.191,13.071L19.264,13.086L19.409,13.086M19.409,13.086L19.553,13.086L19.611,13.071L19.712,13.071L19.755,13.057L19.813,13.057L19.842,13.042L19.9,13.042L19.915,13.028L19.972,13.028L19.986,13.014L20.03,13.014L20.044,13L20.102,13L20.117,12.985L20.131,12.985M20.131,12.753L20.131,12.667M20.131,12.985L20.131,12.927L20.131,12.869L20.131,12.812L20.131,12.753M18.671,12.667L18.671,12.753M18.671,12.753L18.671,12.985M34.265,0.209L34.265,-0.108M33.759,3.403L34.265,2.898M27.285,3.403L33.759,3.403M27.292,3.389C27,3.389 26.765,3.625 26.765,3.917M26.75,7.262L26.75,3.924M27.177,8.536C27.215,8.544 27.253,8.548 27.292,8.548M32.198,8.563L27.285,8.563M32.357,8.7C32.357,8.616 32.289,8.548 32.206,8.548M37.921,14.701C37.926,14.833 37.987,14.956 38.087,15.041C38.188,15.126 38.32,15.166 38.45,15.148M38.832,15.153L38.441,15.153M39.03,15.596C39.052,15.427 38.98,15.258 38.842,15.157M30.445,29.177C35.112,26.08 38.234,21.136 39.025,15.591M30.265,29.15C30.31,29.204 30.388,29.215 30.446,29.177M30.001,28.853L30.262,29.156M30.001,25.355L30.001,28.853M30.016,25.348C30.016,25.272 29.955,25.211 29.879,25.211M29.539,25.211L29.872,25.211M26.36,24.705L26.865,25.211M26.36,18.23L26.36,24.705M26.36,18.224C26.36,17.932 26.124,17.696 25.833,17.696M22.501,17.696L25.825,17.696M21.228,18.109C21.219,18.146 21.215,18.185 21.215,18.224M21.201,23.145L21.201,18.23M21.049,23.289C21.132,23.289 21.201,23.221 21.201,23.137M19.409,23.303L21.042,23.303M15.063,28.853C14.931,28.858 14.807,28.918 14.722,29.019C14.637,29.12 14.598,29.251 14.614,29.382M14.596,29.777L14.596,29.387M14.167,29.961C14.336,29.984 14.505,29.912 14.606,29.774M0.587,21.378C3.685,26.045 8.628,29.167 14.174,29.957M0.612,21.197C0.559,21.242 0.548,21.319 0.586,21.377M0.911,20.948L0.607,21.208M4.408,20.948L4.09,20.948M4.415,20.948C4.491,20.948 4.552,20.886 4.552,20.811" style="fill:none;stroke:rgb(30,28,26);stroke-width:0.25px;"/>
                </g>
                <g transform="matrix(6.15103,0,0,6.15103,1332.72,1602.78)">
                    <path d="M0,26.857L0,27.19M0.492,23.679L0,24.185M6.964,23.679L0.492,23.679M6.971,23.665C7.263,23.665 7.499,23.429 7.499,23.138M7.499,19.822L7.499,23.145M7.086,18.535C7.048,18.527 7.01,18.523 6.971,18.523M2.052,18.523L6.964,18.523M1.907,18.357C1.907,18.44 1.975,18.508 2.059,18.508M-3.641,12.373C-3.646,12.241 -3.706,12.118 -3.807,12.033C-3.908,11.947 -4.039,11.908 -4.17,11.925M-4.565,11.921L-4.175,11.921M-4.75,11.478C-4.771,11.648 -4.699,11.815 -4.562,11.917M3.833,-2.096C-0.833,1 -3.954,5.94 -4.744,11.483M4.013,-2.07C3.968,-2.123 3.891,-2.135 3.833,-2.096M4.262,-1.758L4.002,-2.061M4.262,1.738L4.262,1.42M4.262,1.731C4.262,1.806 4.324,1.868 4.399,1.868M4.71,1.882L4.393,1.882M7.903,2.373L7.397,1.882M7.903,8.845L7.903,2.373M7.903,8.837C7.903,9.128 8.14,9.364 8.431,9.364M11.761,9.379L8.423,9.379M13.049,8.952C13.057,8.914 13.062,8.876 13.062,8.837M13.062,3.933L13.062,8.845M13.213,3.774C13.129,3.774 13.062,3.842 13.062,3.926M19.22,-1.779C19.476,-1.82 19.664,-2.04 19.664,-2.3M19.65,-2.683L19.65,-2.292M20.108,-2.881C19.938,-2.903 19.77,-2.83 19.668,-2.693M33.685,5.7C30.588,1.035 25.646,-2.085 20.103,-2.875M33.659,5.88C33.712,5.835 33.723,5.757 33.685,5.699M33.346,6.143L33.65,5.883M29.85,6.143L30.168,6.143M29.706,6.274L29.85,6.143M21.362,5.753C21.932,5.753 22.395,5.291 22.395,4.721C22.395,4.15 21.932,3.688 21.362,3.688C20.791,3.688 20.329,4.15 20.329,4.721C20.329,5.291 20.791,5.753 21.362,5.753M2.854,11.257C3.424,11.257 3.887,10.795 3.887,10.224C3.887,9.653 3.424,9.191 2.854,9.191C2.283,9.191 1.821,9.653 1.821,10.224C1.821,10.795 2.283,11.257 2.854,11.257M8.358,29.76C8.929,29.76 9.392,29.298 9.392,28.728C9.392,28.157 8.929,27.695 8.358,27.695C7.788,27.695 7.326,28.157 7.326,28.728C7.326,29.298 7.788,29.76 8.358,29.76M26.866,24.257C27.437,24.257 27.899,23.794 27.899,23.224C27.899,22.654 27.437,22.191 26.866,22.191C26.296,22.191 25.833,22.654 25.833,23.224C25.833,23.794 26.296,24.257 26.866,24.257" style="fill:none;stroke:rgb(30,28,26);stroke-width:0.25px;"/>
                </g>
                <g transform="matrix(6.15103,0,0,6.15103,1382.65,1620.86)">
                    <path d="M0,-4.105L0,-9.792L4.538,-9.792L4.538,-2.236L3.63,-1.313L3.63,-0.898L4.538,0.009L4.538,5.687L0,5.687L0,-1.823L0.908,-2.73L0.908,-3.197L0,-4.105Z" style="fill:rgb(237,28,36);fill-rule:nonzero;"/>
                </g>
                <g transform="matrix(6.15103,0,0,6.15103,1464.4,1790.41)">
                    <path d="M0,4.105L0,9.792L-4.537,9.792L-4.537,2.236L-3.629,1.313L-3.629,0.898L-4.537,-0.009L-4.537,-5.687L0,-5.687L0,1.823L-0.907,2.73L-0.907,3.197L0,4.105Z" style="fill:rgb(237,28,36);fill-rule:nonzero;"/>
                </g>
                <g transform="matrix(6.15103,0,0,6.15103,1533.55,1692.67)">
                    <path d="M0,-4.537L5.688,-4.537L5.688,0L-1.868,0L-2.792,-0.907L-3.206,-0.907L-4.114,0L-9.792,0L-9.792,-4.537L-2.282,-4.537L-1.374,-3.63L-0.907,-3.63L0,-4.537Z" style="fill:rgb(237,28,36);fill-rule:nonzero;"/>
                </g>
                <g transform="matrix(6.15103,0,0,6.15103,1314.62,1718.6)">
                    <path d="M0,4.537L-5.687,4.537L-5.687,0L1.868,0L2.792,0.908L3.207,0.908L4.114,0L9.792,0L9.792,4.537L2.282,4.537L1.375,3.63L0.907,3.63L0,4.537Z" style="fill:rgb(237,28,36);fill-rule:nonzero;"/>
                </g>
            </g>
        </g>
    </g>
</svg>
