<?xml version="1.0" encoding="UTF-8" standalone="no"?>
<!DOCTYPE svg PUBLIC "-//W3C//DTD SVG 1.1//EN" "http://www.w3.org/Graphics/SVG/1.1/DTD/svg11.dtd">
<svg width="100%" height="100%" viewBox="0 0 292 294" version="1.1" xmlns="http://www.w3.org/2000/svg" xmlns:xlink="http://www.w3.org/1999/xlink" xml:space="preserve" xmlns:serif="http://www.serif.com/" style="fill-rule:evenodd;clip-rule:evenodd;stroke-linecap:round;stroke-linejoin:round;stroke-miterlimit:10;">
    <g transform="matrix(1,0,0,1,-11244.4,-6222.61)">
        <g transform="matrix(2,0,0,2,9558.62,9.56113e-14)">
            <g transform="matrix(0.402884,0,0,0.402863,541.956,2497.47)">
                <g transform="matrix(6.15103,0,0,6.15103,927.388,1654.67)">
                    <path d="M0,12.366L0.091,12.366M0.091,4.171C0.061,4.171 0.03,4.171 0,4.171M0.045,11.904C2.053,11.904 3.68,10.276 3.68,8.268C3.68,6.261 2.053,4.633 0.045,4.633C-1.962,4.633 -3.59,6.261 -3.59,8.268C-3.59,10.276 -1.962,11.904 0.045,11.904M-0.59,5.619C-1.934,5.941 -2.823,7.217 -2.66,8.589C-2.498,9.96 -1.335,10.993 0.045,10.993C1.426,10.993 2.588,9.96 2.751,8.588C2.913,7.217 2.023,5.941 0.681,5.619M-0.591,5.664C-1.909,5.986 -2.779,7.242 -2.617,8.589C-2.455,9.936 -1.312,10.949 0.045,10.949C1.402,10.949 2.545,9.936 2.707,8.589C2.869,7.242 2,5.986 0.682,5.664M-0.598,6.05L0.674,6.05M0.674,5.616L0.659,5.616L0.645,5.616L0.63,5.616L0.616,5.601L0.602,5.601L0.587,5.601L0.559,5.601L0.544,5.601L0.529,5.587L0.5,5.587L0.486,5.587L0.457,5.587L0.443,5.573L0.414,5.573L0.385,5.573L0.371,5.573L0.341,5.558L0.312,5.558L0.284,5.558L0.226,5.558L0.154,5.544L0.096,5.544L0.038,5.544M0.038,5.544L-0.02,5.544L-0.092,5.544L-0.15,5.558L-0.208,5.558L-0.236,5.558L-0.266,5.558L-0.294,5.573L-0.323,5.573L-0.353,5.573L-0.367,5.573L-0.396,5.587L-0.41,5.587L-0.439,5.587L-0.454,5.587L-0.482,5.601L-0.497,5.601L-0.511,5.601L-0.526,5.601L-0.54,5.601L-0.555,5.616L-0.569,5.616L-0.583,5.616L-0.598,5.616M0.674,6.05L0.674,5.674M0.674,5.674L0.674,5.616M-0.598,5.616L-0.598,5.674M-0.598,5.674L-0.598,6.05M0.091,2.263C0.061,2.262 0.03,2.262 0,2.263M0,14.274C0.03,14.274 0.061,14.274 0.091,14.274M0.091,2.234C0.061,2.234 0.03,2.234 0,2.234M0,14.303C0.03,14.303 0.061,14.303 0.091,14.303M0.091,3.449C0.06,3.448 0.03,3.448 0,3.449M0,13.724C0.03,13.725 0.061,13.725 0.091,13.724M0.091,2.812L0,2.812M0.003,3.923C0.034,3.926 0.065,3.926 0.095,3.922M0.095,3.104C0.065,3.1 0.034,3.1 0.003,3.103M-0.006,3.69C0.024,3.696 0.055,3.695 0.084,3.686M0.084,3.34C0.055,3.331 0.023,3.33 -0.006,3.336M-0.001,-0.05C-4.577,-0.024 -8.273,3.693 -8.273,8.269C-8.272,12.845 -4.576,16.562 0,16.587M-0.001,-0.165C-4.641,-0.14 -8.389,3.629 -8.389,8.269C-8.388,12.909 -4.64,16.678 0.001,16.702M-0.005,-0.151L-0.005,-0.035M-0.005,-0.035L-0.005,4.633M-0.005,11.918L-0.005,16.587M-0.005,16.587L-0.005,16.702M-3.785,2.09C-3.534,2.09 -3.33,1.886 -3.33,1.634C-3.33,1.383 -3.534,1.178 -3.785,1.178C-4.037,1.178 -4.24,1.383 -4.24,1.634C-4.24,1.886 -4.037,2.09 -3.785,2.09M-3.785,1.93C-3.621,1.93 -3.489,1.798 -3.489,1.634C-3.489,1.47 -3.621,1.338 -3.785,1.338C-3.949,1.338 -4.082,1.47 -4.082,1.634C-4.082,1.798 -3.949,1.93 -3.785,1.93M-3.785,15.358C-3.534,15.358 -3.33,15.154 -3.33,14.903C-3.33,14.651 -3.534,14.448 -3.785,14.448C-4.037,14.448 -4.24,14.651 -4.24,14.903C-4.24,15.154 -4.037,15.358 -3.785,15.358M-3.785,15.199C-3.621,15.199 -3.489,15.066 -3.489,14.903C-3.489,14.739 -3.621,14.606 -3.785,14.606C-3.949,14.606 -4.082,14.739 -4.082,14.903C-4.082,15.066 -3.949,15.199 -3.785,15.199M-7.615,8.724C-7.364,8.724 -7.16,8.52 -7.16,8.268C-7.16,8.017 -7.364,7.813 -7.615,7.813C-7.867,7.813 -8.071,8.017 -8.071,8.268C-8.071,8.52 -7.867,8.724 -7.615,8.724M-7.615,8.565C-7.452,8.565 -7.319,8.432 -7.319,8.268C-7.319,8.105 -7.452,7.972 -7.615,7.972C-7.779,7.972 -7.912,8.105 -7.912,8.268C-7.912,8.432 -7.779,8.565 -7.615,8.565M0.091,16.587C4.667,16.561 8.363,12.845 8.363,8.268C8.363,3.692 4.667,-0.025 0.091,-0.05M0.091,16.702C4.73,16.677 8.479,12.908 8.479,8.268C8.479,3.628 4.73,-0.14 0.091,-0.165M0.082,16.702L0.082,16.587M0.082,16.587L0.082,11.918M0.082,4.633L0.082,-0.035M0.082,-0.035L0.082,-0.151M3.875,15.358C4.127,15.358 4.331,15.154 4.331,14.903C4.331,14.651 4.127,14.448 3.875,14.448C3.624,14.448 3.42,14.651 3.42,14.903C3.42,15.154 3.624,15.358 3.875,15.358M3.875,15.199C4.039,15.199 4.172,15.066 4.172,14.903C4.172,14.739 4.039,14.606 3.875,14.606C3.712,14.606 3.579,14.739 3.579,14.903C3.579,15.066 3.712,15.199 3.875,15.199M3.875,2.09C4.127,2.09 4.331,1.886 4.331,1.634C4.331,1.383 4.127,1.178 3.875,1.178C3.624,1.178 3.42,1.383 3.42,1.634C3.42,1.886 3.624,2.09 3.875,2.09M3.875,1.93C4.039,1.93 4.172,1.798 4.172,1.634C4.172,1.47 4.039,1.338 3.875,1.338C3.712,1.338 3.579,1.47 3.579,1.634C3.579,1.798 3.712,1.93 3.875,1.93M7.706,8.724C7.957,8.724 8.161,8.52 8.161,8.268C8.161,8.017 7.957,7.813 7.706,7.813C7.454,7.813 7.25,8.017 7.25,8.268C7.25,8.52 7.454,8.724 7.706,8.724M7.706,8.565C7.869,8.565 8.002,8.432 8.002,8.268C8.002,8.105 7.869,7.972 7.706,7.972C7.542,7.972 7.41,8.105 7.41,8.268C7.41,8.432 7.542,8.565 7.706,8.565M-2.882,-13.665L-2.882,-11.382M-1.285,-10.803C-0.993,-10.803 -0.757,-11.04 -0.757,-11.331C-0.757,-11.622 -0.993,-11.859 -1.285,-11.859C-1.576,-11.859 -1.812,-11.622 -1.812,-11.331C-1.812,-11.04 -1.576,-10.803 -1.285,-10.803M3.492,-16.614L3.492,-15.833M3.492,-16.614L-2.882,-16.614M-2.882,-15.833L2.712,-15.833M-0.106,-10.514L2.712,-15.833M-2.882,-10.514L-0.106,-10.514M-2.882,-10.009L0.298,-10.009M0.298,-10.009L3.492,-15.833M-7.435,-21.167L-7.435,-15.487M-2.882,-21.167L-7.435,-21.167M-2.882,-13.665L-2.882,-21.167M-3.792,-12.755L-2.882,-13.665M-3.792,-12.292L-3.792,-12.755M-2.882,-11.382L-3.792,-12.292M-2.882,-5.701L-2.882,-11.382M-7.435,-5.701L-2.882,-5.701M-7.435,-13.203L-7.435,-5.701M-6.524,-14.113L-7.435,-13.203M-6.524,-14.576L-6.524,-14.113M-7.435,-15.487L-6.524,-14.576M-5.158,-12.986C-4.907,-12.986 -4.703,-13.19 -4.703,-13.441C-4.703,-13.693 -4.907,-13.897 -5.158,-13.897C-5.41,-13.897 -5.613,-13.693 -5.613,-13.441C-5.613,-13.19 -5.41,-12.986 -5.158,-12.986M-5.158,-13.029C-4.931,-13.029 -4.746,-13.214 -4.746,-13.441C-4.746,-13.669 -4.931,-13.853 -5.158,-13.853C-5.386,-13.853 -5.57,-13.669 -5.57,-13.441C-5.57,-13.214 -5.386,-13.029 -5.158,-13.029M-15.182,8.218L-20.992,4.865M-15.178,8.218C-15.022,8.307 -14.824,8.254 -14.734,8.098M-12.479,4.156L-14.748,8.102M-12.464,4.153C-12.375,3.997 -12.428,3.798 -12.583,3.708M-16.988,1.193L-12.594,3.722M-18.911,-7.147L-19.127,-6.771M-18.903,-7.15C-18.829,-7.278 -18.873,-7.442 -19.001,-7.515M-19.648,-7.884L-18.998,-7.523M-19.665,-8.024C-19.69,-7.979 -19.674,-7.922 -19.63,-7.897M-12.083,-15.98C-15.24,-14.007 -17.851,-11.27 -19.675,-8.024M-11.793,-15.941C-11.867,-16.015 -11.981,-16.028 -12.07,-15.973M-11.077,-15.212L-11.799,-15.934M-11.077,-12.755L-11.077,-12.928M-11.063,-12.762C-11.063,-12.614 -10.942,-12.494 -10.795,-12.494M-10.629,-12.48L-10.802,-12.48M-8.301,-12.467C-8.318,-12.485 -8.342,-12.494 -8.367,-12.494M-7.55,-11.699L-8.302,-12.451M-7.521,-11.649C-7.521,-11.674 -7.531,-11.697 -7.549,-11.716M-7.521,-4.935L-7.521,-11.642M-7.521,-4.942C-7.521,-4.763 -7.375,-4.617 -7.196,-4.617M-2.65,-4.617L-7.203,-4.617M-2.643,-4.617C-2.464,-4.617 -2.318,-4.763 -2.318,-4.942M-2.333,-10.009L-2.333,-4.935M3.926,-15.833L3.492,-15.833M3.933,-15.848C4.081,-15.848 4.201,-15.967 4.201,-16.115M4.201,-16.845L4.201,-16.108M4.293,-16.946C4.242,-16.946 4.201,-16.904 4.201,-16.852M14.976,-14.348C11.688,-16.096 8.014,-16.989 4.291,-16.945M15.091,-14.092C15.118,-14.192 15.072,-14.299 14.979,-14.347M14.824,-13.087L15.084,-14.085M12.685,-11.859L12.844,-11.946M12.703,-11.866C12.575,-11.792 12.531,-11.629 12.605,-11.501M12.685,-11.323L12.583,-11.483M13.824,-9.312C13.83,-9.336 13.827,-9.362 13.814,-9.384M13.538,-8.289L13.813,-9.315M13.505,-8.229C13.527,-8.241 13.542,-8.262 13.549,-8.286M7.698,-4.877L13.494,-8.231M7.702,-4.891C7.546,-4.801 7.493,-4.603 7.583,-4.447M9.852,-0.498L7.583,-4.444M9.853,-0.502C9.942,-0.346 10.141,-0.293 10.296,-0.383M14.68,-2.926L10.286,-0.382M22.86,-0.411L22.644,-0.787M22.867,-0.429C22.941,-0.301 23.104,-0.258 23.232,-0.331M23.872,-0.686L23.236,-0.31M24.003,-0.654C23.977,-0.698 23.92,-0.713 23.875,-0.688M27.096,9.903C26.965,6.18 25.901,2.551 24.001,-0.653M26.929,10.118C27.03,10.091 27.099,9.998 27.095,9.894M25.939,10.4L26.922,10.126M23.8,9.172L23.958,9.259M25.881,10.371L25.939,10.4M23.811,9.164C23.683,9.09 23.519,9.134 23.445,9.262M23.337,9.432L23.424,9.273M22.169,11.409C22.193,11.403 22.213,11.387 22.226,11.365M21.126,11.701L22.152,11.427M21.072,11.674C21.093,11.686 21.119,11.69 21.143,11.683M15.258,8.333L21.068,11.686M15.269,8.319C15.113,8.229 14.914,8.283 14.824,8.438M12.541,12.395L14.824,8.449M12.541,12.384C12.451,12.54 12.504,12.739 12.66,12.828M17.064,15.372L12.656,12.828M18.972,23.698L19.189,23.322M18.994,23.701C18.919,23.829 18.964,23.993 19.091,24.067M19.709,24.449L19.074,24.074M19.755,24.56C19.78,24.516 19.765,24.459 19.72,24.433M12.165,32.512C15.324,30.538 17.936,27.802 19.759,24.554M11.883,32.478C11.957,32.552 12.072,32.565 12.161,32.51M11.153,31.763L11.875,32.486M11.153,29.306L11.153,29.493M11.153,29.299C11.153,29.151 11.033,29.032 10.886,29.032M8.436,29.032L10.878,29.032M8.376,29.004C8.394,29.021 8.418,29.032 8.443,29.032M7.626,28.251L8.378,29.002M7.597,28.186C7.597,28.21 7.607,28.235 7.625,28.252M7.597,21.486L7.597,28.193M7.612,21.479C7.612,21.3 7.466,21.154 7.287,21.154M2.726,21.168L7.279,21.168M2.733,21.154C2.554,21.154 2.408,21.3 2.408,21.479M2.408,26.559L2.408,21.486M-3.85,32.385L-3.417,32.385M-3.843,32.385C-3.991,32.385 -4.11,32.504 -4.11,32.652M-4.125,33.396L-4.125,32.659M-4.203,33.483C-4.151,33.483 -4.11,33.441 -4.11,33.389M-14.888,30.885C-11.603,32.639 -7.927,33.533 -4.204,33.481M-15,30.628C-15.027,30.729 -14.981,30.835 -14.889,30.884M-14.748,29.653L-15.008,30.636M-12.624,28.409L-12.783,28.511M-12.613,28.403C-12.484,28.329 -12.441,28.165 -12.515,28.037M-12.609,27.889L-12.522,28.048M-13.748,25.863C-13.754,25.887 -13.751,25.913 -13.738,25.935M-13.476,24.84L-13.751,25.866M-13.429,24.78C-13.451,24.792 -13.466,24.813 -13.473,24.837M-7.623,21.429L-13.433,24.782M-7.612,21.429C-7.456,21.339 -7.403,21.139 -7.493,20.984M-9.791,17.049L-7.507,20.995M-9.776,17.038C-9.866,16.883 -10.065,16.829 -10.221,16.919M-14.618,19.477L-10.224,16.933M-22.784,16.962L-22.582,17.338M-22.792,16.966C-22.865,16.838 -23.029,16.794 -23.156,16.868M-23.796,17.237L-23.16,16.876M-23.927,17.205C-23.901,17.249 -23.844,17.264 -23.8,17.239M-27.014,6.817C-26.857,10.482 -25.796,14.051 -23.925,17.206M-26.868,6.588C-26.954,6.624 -27.009,6.71 -27.005,6.804M-25.849,6.165L-26.875,6.599M-23.738,7.394L-23.897,7.293M-23.72,7.373C-23.592,7.447 -23.429,7.403 -23.355,7.275M-23.276,7.134L-23.363,7.293M-22.079,5.128C-22.103,5.135 -22.124,5.15 -22.136,5.172M-21.064,4.865L-22.09,5.139M-20.981,4.863C-21.003,4.85 -21.028,4.847 -21.052,4.853M-4.233,-0.527C-3.639,-0.527 -3.156,-1.009 -3.156,-1.604C-3.156,-2.198 -3.639,-2.68 -4.233,-2.68C-4.828,-2.68 -5.31,-2.198 -5.31,-1.604C-5.31,-1.009 -4.828,-0.527 -4.233,-0.527M6.463,0.702C7.057,0.702 7.54,0.22 7.54,-0.375C7.54,-0.969 7.057,-1.452 6.463,-1.452C5.868,-1.452 5.386,-0.969 5.386,-0.375C5.386,0.22 5.868,0.702 6.463,0.702M10.741,10.574C11.335,10.574 11.818,10.092 11.818,9.497C11.818,8.902 11.335,8.42 10.741,8.42C10.146,8.42 9.664,8.902 9.664,9.497C9.664,10.092 10.146,10.574 10.741,10.574M4.324,19.232C4.918,19.232 5.4,18.749 5.4,18.155C5.4,17.56 4.918,17.078 4.324,17.078C3.729,17.078 3.247,17.56 3.247,18.155C3.247,18.749 3.729,19.232 4.324,19.232M-6.372,17.989C-5.778,17.989 -5.295,17.507 -5.295,16.911C-5.295,16.317 -5.778,15.835 -6.372,15.835C-6.967,15.835 -7.449,16.317 -7.449,16.911C-7.449,17.507 -6.967,17.989 -6.372,17.989M-10.65,8.116C-10.056,8.116 -9.574,7.635 -9.574,7.04C-9.574,6.445 -10.056,5.963 -10.65,5.963C-11.245,5.963 -11.728,6.445 -11.728,7.04C-11.728,7.635 -11.245,8.116 -10.65,8.116M17.57,-5.224L15.604,-4.082M16.363,-2.145C16.655,-2.145 16.891,-2.382 16.891,-2.673C16.891,-2.965 16.655,-3.201 16.363,-3.201C16.072,-3.201 15.835,-2.965 15.835,-2.673C15.835,-2.382 16.072,-2.145 16.363,-2.145M23.323,-1.177L22.644,-0.787M23.323,-1.177L20.128,-6.698M19.463,-6.308L22.253,-1.466M16.24,-1.235L22.253,-1.466M14.853,-3.649L16.24,-1.235M14.419,-3.388L16.009,-0.628M16.009,-0.628L22.644,-0.787M21.805,-12.914L16.876,-10.066M24.074,-8.982L21.805,-12.914M17.57,-5.224L24.074,-8.982M16.327,-5.557L17.57,-5.224M15.937,-5.325L16.327,-5.557M15.604,-4.082L15.937,-5.325" style="fill:none;stroke:rgb(30,28,26);stroke-width:0.25px;"/>
                </g>
                <g transform="matrix(6.15103,0,0,6.15103,993.061,1789.61)">
                    <path d="M0,-23.17L4.929,-26.017M-2.27,-27.116L0,-23.17M4.235,-30.874L-2.27,-27.116M5.479,-30.542L4.235,-30.874M5.869,-30.758L5.479,-30.542M6.201,-32.002L5.869,-30.758M5.572,-28.561C5.824,-28.561 6.027,-28.765 6.027,-29.016C6.027,-29.268 5.824,-29.472 5.572,-29.472C5.321,-29.472 5.117,-29.268 5.117,-29.016C5.117,-28.765 5.321,-28.561 5.572,-28.561M5.572,-28.605C5.8,-28.605 5.984,-28.789 5.984,-29.016C5.984,-29.244 5.8,-29.428 5.572,-29.428C5.345,-29.428 5.16,-29.244 5.16,-29.016C5.16,-28.789 5.345,-28.605 5.572,-28.605M9.814,-5.218L7.849,-6.346M7.003,-4.481C7.294,-4.481 7.531,-4.717 7.531,-5.009C7.531,-5.3 7.294,-5.536 7.003,-5.536C6.711,-5.536 6.476,-5.3 6.476,-5.009C6.476,-4.717 6.711,-4.481 7.003,-4.481M9.178,1.777L8.514,1.387M9.178,1.777L12.373,-3.744M11.708,-4.134L8.904,0.722M5.695,-4.38L8.904,0.722M7.083,-6.794L5.695,-4.38M6.649,-7.039L5.059,-4.279M5.059,-4.279L8.514,1.387M18.603,-5.406L13.674,-8.253M16.319,-1.461L18.603,-5.406M9.814,-5.218L16.319,-1.461M9.482,-6.462L9.814,-5.218M9.092,-6.692L9.482,-6.462M7.849,-6.346L9.092,-6.692M2.92,-9.193L7.849,-6.346M5.189,-13.139L2.92,-9.193M11.708,-9.381L5.189,-13.139M12.041,-8.138L11.708,-9.381M12.431,-7.907L12.041,-8.138M13.674,-8.253L12.431,-7.907M10.761,-6.852C11.013,-6.852 11.217,-7.055 11.217,-7.307C11.217,-7.558 11.013,-7.762 10.761,-7.762C10.51,-7.762 10.306,-7.558 10.306,-7.307C10.306,-7.055 10.51,-6.852 10.761,-6.852M10.761,-6.895C10.989,-6.895 11.173,-7.079 11.173,-7.307C11.173,-7.534 10.989,-7.719 10.761,-7.719C10.534,-7.719 10.349,-7.534 10.349,-7.307C10.349,-7.079 10.534,-6.895 10.761,-6.895M-7.719,8.282L-7.719,6.012M-9.302,6.475C-9.01,6.475 -8.774,6.239 -8.774,5.947C-8.774,5.656 -9.01,5.42 -9.302,5.42C-9.593,5.42 -9.829,5.656 -9.829,5.947C-9.829,6.239 -9.593,6.475 -9.302,6.475M-14.093,11.23L-14.093,10.45M-14.093,11.23L-7.719,11.23M-7.719,10.45L-13.313,10.45M-10.509,5.131L-13.313,10.45M-7.719,5.131L-10.509,5.131M-7.719,4.624L-10.914,4.624M-10.914,4.624L-14.093,10.45M-3.166,15.798L-3.166,10.102M-7.719,15.798L-3.166,15.798M-7.719,8.282L-7.719,15.798M-6.809,7.371L-7.719,8.282M-6.809,6.923L-6.809,7.371M-7.719,6.012L-6.809,6.923M-7.719,0.317L-7.719,6.012M-3.166,0.317L-7.719,0.317M-3.166,7.833L-3.166,0.317M-4.076,8.744L-3.166,7.833M-4.076,9.192L-4.076,8.744M-3.166,10.102L-4.076,9.192M-5.442,8.498C-5.191,8.498 -4.987,8.295 -4.987,8.043C-4.987,7.792 -5.191,7.588 -5.442,7.588C-5.694,7.588 -5.897,7.792 -5.897,8.043C-5.897,8.295 -5.694,8.498 -5.442,8.498M-5.442,8.455C-5.215,8.455 -5.03,8.27 -5.03,8.043C-5.03,7.816 -5.215,7.631 -5.442,7.631C-5.67,7.631 -5.854,7.816 -5.854,8.043C-5.854,8.27 -5.67,8.455 -5.442,8.455M-28.187,-0.159L-26.207,-1.301M-26.951,-2.183C-26.66,-2.183 -26.423,-2.419 -26.423,-2.711C-26.423,-3.002 -26.66,-3.238 -26.951,-3.238C-27.242,-3.238 -27.479,-3.002 -27.479,-2.711C-27.479,-2.419 -27.242,-2.183 -26.951,-2.183M-33.925,-4.207L-33.26,-4.597M-33.925,-4.207L-30.731,1.315M-30.066,0.925L-32.87,-3.918M-26.842,-4.149L-32.87,-3.918M-25.455,-1.735L-26.842,-4.149M-25.021,-1.981L-26.611,-4.741M-26.611,-4.741L-33.26,-4.597M-32.408,7.544L-27.479,4.697M-34.691,3.599L-32.408,7.544M-28.187,-0.159L-34.691,3.599M-26.944,0.173L-28.187,-0.159M-26.539,-0.058L-26.944,0.173M-26.207,-1.301L-26.539,-0.058M-21.277,-4.149L-26.207,-1.301M-19.008,-0.203L-21.277,-4.149M-25.513,3.555L-19.008,-0.203M-26.756,3.223L-25.513,3.555M-27.146,3.454L-26.756,3.223M-27.479,4.697L-27.146,3.454M-26.835,2.153C-26.584,2.153 -26.38,1.949 -26.38,1.698C-26.38,1.446 -26.584,1.243 -26.835,1.243C-27.087,1.243 -27.291,1.446 -27.291,1.698C-27.291,1.949 -27.087,2.153 -26.835,2.153M-26.835,2.11C-26.608,2.11 -26.423,1.925 -26.423,1.698C-26.423,1.47 -26.608,1.286 -26.835,1.286C-27.062,1.286 -27.247,1.47 -27.247,1.698C-27.247,1.925 -27.062,2.11 -26.835,2.11M-31.107,-22.1L-29.126,-20.959M-28.281,-21.797C-27.989,-21.797 -27.753,-22.033 -27.753,-22.324C-27.753,-22.616 -27.989,-22.852 -28.281,-22.852C-28.572,-22.852 -28.808,-22.616 -28.808,-22.324C-28.808,-22.033 -28.572,-21.797 -28.281,-21.797M-30.471,-29.096L-29.806,-28.706M-30.471,-29.096L-33.651,-23.575M-32.985,-23.185L-30.182,-28.026M-26.987,-22.939L-30.182,-28.026M-28.375,-20.525L-26.987,-22.939M-27.941,-20.279L-26.351,-23.025M-26.351,-23.025L-29.806,-28.706M-39.88,-21.913L-34.952,-19.065M-37.611,-25.858L-39.88,-21.913M-31.107,-22.1L-37.611,-25.858M-30.774,-20.857L-31.107,-22.1M-30.37,-20.626L-30.774,-20.857M-29.126,-20.959L-30.37,-20.626M-24.197,-18.111L-29.126,-20.959M-26.481,-14.18L-24.197,-18.111M-32.985,-17.923L-26.481,-14.18M-33.318,-19.166L-32.985,-17.923M-33.708,-19.398L-33.318,-19.166M-34.952,-19.065L-33.708,-19.398M-32.039,-19.571C-31.788,-19.571 -31.583,-19.775 -31.583,-20.026C-31.583,-20.278 -31.788,-20.482 -32.039,-20.482C-32.291,-20.482 -32.494,-20.278 -32.494,-20.026C-32.494,-19.775 -32.291,-19.571 -32.039,-19.571M-32.039,-19.614C-31.811,-19.614 -31.627,-19.799 -31.627,-20.026C-31.627,-20.253 -31.811,-20.439 -32.039,-20.439C-32.267,-20.439 -32.451,-20.253 -32.451,-20.026C-32.451,-19.799 -32.267,-19.614 -32.039,-19.614M-21.516,-38.968C-21.64,-38.968 -21.74,-38.868 -21.74,-38.744M-18.112,-38.968L-21.523,-38.968M-18.112,-37.378L-18.112,-37.421M-17.201,-36.511L-18.112,-37.378M-18.112,-35.181L-17.201,-36.048M-21.754,-34.863L-21.307,-34.415M-21.307,-34.415L-18.112,-34.415M-21.754,-38.737L-21.754,-34.863M-18.112,-35.138L-18.112,-35.181M5.838,-35.748C5.776,-35.856 5.64,-35.892 5.532,-35.831M7.545,-32.782L5.839,-35.745M6.158,-31.987L6.201,-32.002M5.869,-30.758L6.158,-31.987M4.264,-30.888L5.479,-30.542M2.168,-33.88L2.009,-33.259M2.009,-33.259L3.599,-30.498M5.521,-35.817L2.168,-33.88M4.235,-30.874L4.264,-30.888M16.723,-10.432C16.785,-10.54 16.748,-10.677 16.641,-10.739M15.018,-7.473L16.724,-10.436M13.63,-8.268L13.674,-8.253M12.431,-7.907L13.63,-8.268M11.737,-9.367L12.041,-8.138M13.284,-12.676L12.662,-12.503M12.662,-12.503L11.072,-9.742M16.637,-10.74L13.284,-12.676M11.708,-9.381L11.737,-9.367M0.253,11.635C0.376,11.635 0.477,11.535 0.477,11.411M-3.166,11.649L0.246,11.649M-3.166,10.059L-3.166,10.102M-4.076,9.192L-3.166,10.059M-3.166,7.877L-4.076,8.744M0.477,7.559L0.015,7.097M0.015,7.097L-3.166,7.097M0.477,11.418L0.477,7.559M-3.166,7.833L-3.166,7.877M-27.102,8.415C-27.04,8.522 -26.903,8.559 -26.795,8.497M-28.823,5.463L-27.117,8.426M-27.45,4.668L-27.479,4.697M-27.146,3.454L-27.45,4.668M-25.556,3.584L-26.756,3.223M-23.46,6.576L-23.287,5.955M-23.287,5.955L-24.876,3.194M-26.813,8.513L-23.46,6.576M-25.513,3.555L-25.556,3.584M-38,-16.886C-38.062,-16.779 -38.025,-16.642 -37.918,-16.58M-36.296,-19.845L-38.001,-16.882M-34.922,-19.05L-34.952,-19.065M-33.708,-19.398L-34.922,-19.05M-33.029,-17.952L-33.318,-19.166M-34.576,-14.642L-33.954,-14.801M-33.954,-14.801L-32.35,-17.562M-37.915,-16.579L-34.576,-14.642M-32.985,-17.923L-33.029,-17.952" style="fill:none;stroke:rgb(30,28,26);stroke-width:0.25px;"/>
                </g>
                <g transform="matrix(6.15103,0,0,6.15103,880.909,1584.55)">
                    <path d="M0,-4.105L0,-9.792L4.538,-9.792L4.538,-2.236L3.63,-1.313L3.63,-0.794L4.538,0.113L4.538,5.687L0,5.687L0,-1.823L0.908,-2.73L0.908,-3.198L0,-4.105Z" style="fill:rgb(237,28,36);fill-rule:nonzero;"/>
                </g>
                <g transform="matrix(6.15103,0,0,6.15103,972.803,1827.39)">
                    <path d="M0,4.105L0,9.792L-4.537,9.792L-4.537,2.236L-3.63,1.313L-3.63,0.794L-4.537,-0.113L-4.537,-5.687L0,-5.687L0,1.823L-0.908,2.73L-0.908,3.197L0,4.105Z" style="fill:rgb(237,28,36);fill-rule:nonzero;"/>
                </g>
                <g transform="matrix(6.15103,0,0,6.15103,1077.69,1750.67)">
                    <path d="M0,-1.945L4.958,0.841L2.736,4.796L-3.852,1.096L-4.212,-0.148L-4.665,-0.402L-5.9,-0.055L-10.76,-2.785L-8.538,-6.741L-1.99,-3.063L-1.643,-1.827L-1.236,-1.598L0,-1.945Z" style="fill:rgb(237,28,36);fill-rule:nonzero;"/>
                </g>
                <g transform="matrix(6.15103,0,0,6.15103,1031.53,1629.53)">
                    <path d="M0,-5.971L4.95,-8.772L7.185,-4.824L0.609,-1.102L-0.642,-1.437L-1.094,-1.181L-1.436,0.055L-6.287,2.801L-8.522,-1.148L-1.986,-4.847L-0.749,-4.504L-0.343,-4.735L0,-5.971Z" style="fill:rgb(237,28,36);fill-rule:nonzero;"/>
                </g>
                <g transform="matrix(6.15103,0,0,6.15103,747.049,1678.39)">
                    <path d="M0,-4.006L4.89,-1.102L6.133,-1.418L6.535,-1.179L6.852,0.064L13.308,3.901L15.626,0L10.834,-2.848L9.59,-2.531L9.145,-2.795L8.814,-4.047L2.318,-7.907L0,-4.006Z" style="fill:rgb(237,28,36);fill-rule:nonzero;"/>
                </g>
                <g transform="matrix(6.15103,0,0,6.15103,823.168,1782.22)">
                    <path d="M0,5.983L-4.922,8.833L-7.196,4.907L-0.657,1.121L0.598,1.443L1.046,1.183L1.377,-0.057L6.201,-2.85L8.474,1.076L1.975,4.839L0.734,4.509L0.331,4.743L0,5.983Z" style="fill:rgb(237,28,36);fill-rule:nonzero;"/>
                </g>
            </g>
        </g>
    </g>
</svg>
