<?xml version="1.0" encoding="UTF-8" standalone="no"?>
<!DOCTYPE svg PUBLIC "-//W3C//DTD SVG 1.1//EN" "http://www.w3.org/Graphics/SVG/1.1/DTD/svg11.dtd">
<svg width="100%" height="100%" viewBox="0 0 146 227" version="1.1" xmlns="http://www.w3.org/2000/svg" xmlns:xlink="http://www.w3.org/1999/xlink" xml:space="preserve" xmlns:serif="http://www.serif.com/" style="fill-rule:evenodd;clip-rule:evenodd;stroke-linecap:round;stroke-linejoin:round;stroke-miterlimit:10;">
    <g transform="matrix(1,0,0,1,-17449.7,-6233.41)">
        <g transform="matrix(2,0,0,2,15663.3,9.56113e-14)">
            <g transform="matrix(0.41067,0,0,0.41067,-883.146,2653.31)">
                <g transform="matrix(2.94675,0,0,2.94675,4403.33,1183.14)">
                    <path d="M0,-5.467L1.396,-4.038L1.338,-2.196L0,-0.809L0.078,12.9L7.314,12.807L7.336,-0.102L6.129,-1.386L5.996,-3.182L7.394,-4.406L7.314,-18.23L-0.085,-18.367L0,-5.467Z" style="fill:rgb(237,28,36);fill-rule:nonzero;"/>
                </g>
                <g transform="matrix(2.94675,0,0,2.94675,4403.25,1364.69)">
                    <path d="M0,-5.246L1.207,-3.963L1.279,-2.32L-0.059,-0.942L0.022,12.882L7.421,13.019L7.335,0.119L5.939,-1.31L5.998,-3.153L7.335,-4.538L7.257,-18.248L0.108,-18.265L0,-5.246Z" style="fill:rgb(237,28,36);fill-rule:nonzero;"/>
                </g>
                <g transform="matrix(2.94675,0,0,2.94675,4424.96,1320.27)">
                    <path d="M0,-46.658L-0.175,-46.865M0,-33.855L0,-46.658M-7.142,-47.543L-6.092,-48.635M-6.079,-48.65C-5.994,-48.736 -5.946,-48.853 -5.946,-48.974M-5.946,-48.959L-5.946,-50.434M-5.946,-50.449C-5.946,-50.57 -5.994,-50.687 -6.079,-50.773M-6.092,-50.759L-7.142,-51.821M-1.341,-48.266C-1.341,-48.145 -1.293,-48.028 -1.208,-47.942M-1.225,-47.927L-0.175,-46.865M-7.142,-47.543L-7.345,-47.366M-7.345,-52.028L-7.142,-51.821M-7.345,-64.654L-7.345,-52.028M0.029,-64.669L-0.023,-64.801M-7.265,-64.801L-7.316,-64.669M-0.175,-64.654L-0.029,-64.772M-0.175,-64.831L-3.673,-64.831M-0.023,-64.801L-0.151,-64.86M-7.137,-64.86L-7.265,-64.801M-3.673,-64.831L-7.171,-64.831M-7.287,-64.772L-7.142,-64.654M-7.316,-33.869L-7.265,-33.737M-0.023,-33.737L0.029,-33.869M-7.171,-33.648L-3.532,-33.708M-7.265,-33.737L-7.137,-33.678M-0.151,-33.678L-0.023,-33.737M-3.532,-33.708L-0.175,-33.648M0,-51.32L0,-64.654M-7.345,-47.366L-7.345,-33.855M-3.658,-49.402C-4.117,-49.402 -4.489,-49.025 -4.489,-48.561C-4.489,-48.096 -4.117,-47.72 -3.658,-47.72C-3.2,-47.72 -2.827,-48.096 -2.827,-48.561C-2.827,-49.025 -3.2,-49.402 -3.658,-49.402M-3.658,-49.491C-4.166,-49.491 -4.576,-49.074 -4.576,-48.561C-4.576,-48.048 -4.166,-47.632 -3.658,-47.632C-3.151,-47.632 -2.74,-48.048 -2.74,-48.561C-2.74,-49.074 -3.151,-49.491 -3.658,-49.491M-7.375,14.086L-7.375,15.974M-29.118,-4.589L-29.789,-4.146M-27.682,-4.838C-28.161,-4.948 -28.664,-4.857 -29.077,-4.585M-10.027,-0.753L-27.69,-4.854M-7.375,2.595C-7.375,0.992 -8.469,-0.398 -10.012,-0.755M-7.375,9.543L-7.375,2.61M-7.345,9.572L-7.375,9.543M-6.004,12.699L-6.004,11.195M-7.375,14.086L-6.004,12.699M-29.793,-4.164C-27.855,-0.735 -25.446,2.398 -22.639,5.142M-30.779,-3.497L-29.789,-4.146M-30.767,-3.491L-30.853,-3.228M-30.872,-3.216C-29.039,1.881 -25.927,6.406 -21.841,9.915M-15.71,15.531L-21.861,9.926M-15.693,15.532C-13.419,17.422 -10.439,18.202 -7.545,17.668M-7.554,17.652L-7.375,17.435M-7.375,15.974L-7.375,17.449M-7.986,15.974L-7.375,15.974M-12.793,14.178C-11.471,15.384 -9.74,16.027 -7.961,15.971M-22.647,5.176L-12.796,14.204M0.058,-50.966L0.058,-52.853M21.772,-32.291L22.472,-32.733M20.394,-32.041C20.874,-31.931 21.377,-32.023 21.789,-32.294M2.681,-36.126L20.374,-32.025M0.087,-39.504C0.087,-37.902 1.181,-36.512 2.725,-36.154M0.058,-46.393L0.058,-39.489M0,-46.452L0.058,-46.393M-1.312,-49.579L-1.312,-48.045M0.058,-50.966L-1.312,-49.579M22.475,-32.748C20.536,-36.177 18.127,-39.31 15.319,-42.053M23.463,-33.382L22.472,-32.733M23.479,-33.388L23.565,-33.651M23.583,-33.667C21.75,-38.762 18.637,-43.288 14.552,-46.796M8.394,-52.411L14.515,-46.776M8.405,-52.412C6.131,-54.301 3.152,-55.082 0.258,-54.547M0.266,-54.531L0.087,-54.314M0.058,-52.853L0.058,-54.299M0.641,-52.853L0.058,-52.853M5.504,-51.088C4.183,-52.294 2.452,-52.936 0.674,-52.879M15.331,-42.026L5.479,-51.054M0.058,10.457L0.058,2.61M0,10.516L0.058,10.457M-1.312,13.644L-1.312,11.873M0.058,15.03L-1.312,13.644M0.058,15.974L0.058,15.03M21.772,-4.589L22.472,-4.146M21.789,-4.585C21.376,-4.857 20.874,-4.948 20.394,-4.838M2.681,-0.753L20.374,-4.854M2.725,-0.755C1.181,-0.397 0.087,0.993 0.087,2.595M14.515,9.926L8.394,15.531M0.258,17.668C3.152,18.202 6.132,17.422 8.406,15.532M0.087,17.435L0.266,17.652M0.058,17.449L0.058,15.974M0.641,15.974L0.058,15.974M0.674,15.971C2.453,16.027 4.184,15.384 5.505,14.178M15.331,5.176L5.479,14.204M15.322,5.142C18.128,2.399 20.537,-0.733 22.475,-4.161M22.472,-4.146L23.463,-3.497M23.565,-3.228L23.479,-3.491M14.553,9.915C18.639,6.406 21.751,1.881 23.584,-3.216M-7.375,-47.337L-7.375,-39.489M-7.345,-47.366L-7.375,-47.337M-6.004,-50.493L-6.004,-48.753M-7.375,-51.88L-6.004,-50.493M-7.375,-52.853L-7.375,-51.88M-29.118,-32.291L-29.789,-32.733M-29.077,-32.294C-28.664,-32.023 -28.161,-31.931 -27.682,-32.041M-10.027,-36.126L-27.69,-32.025M-10.012,-36.154C-8.469,-36.512 -7.375,-37.902 -7.375,-39.504M-21.861,-46.776L-15.71,-52.411M-7.546,-54.548C-10.44,-55.082 -13.42,-54.301 -15.693,-52.412M-7.375,-54.314L-7.554,-54.531M-7.375,-54.299L-7.375,-52.853M-7.986,-52.853L-7.375,-52.853M-7.962,-52.879C-9.74,-52.936 -11.471,-52.293 -12.793,-51.087M-22.647,-42.026L-12.796,-51.054M-22.639,-42.05C-25.446,-39.307 -27.855,-36.174 -29.793,-32.745M-29.789,-32.733L-30.779,-33.382M-30.853,-33.651L-30.767,-33.388M-21.841,-46.794C-25.927,-43.285 -29.039,-38.76 -30.872,-33.664M-8.714,-18.533L-8.714,-18.346M1.397,-18.346L1.397,-18.533M-3.658,-23.322C-6.322,-23.322 -8.482,-21.136 -8.482,-18.44C-8.482,-15.743 -6.322,-13.557 -3.658,-13.557C-0.995,-13.557 1.166,-15.743 1.166,-18.44C1.166,-21.136 -0.995,-23.322 -3.658,-23.322M-3.658,-23.086C-6.194,-23.086 -8.249,-21.006 -8.249,-18.44C-8.249,-15.873 -6.194,-13.793 -3.658,-13.793C-1.123,-13.793 0.932,-15.873 0.932,-18.44C0.932,-21.006 -1.123,-23.086 -3.658,-23.086M-3.658,-18.897C-3.908,-18.897 -4.11,-18.692 -4.11,-18.44C-4.11,-18.187 -3.908,-17.983 -3.658,-17.983C-3.409,-17.983 -3.207,-18.187 -3.207,-18.44C-3.207,-18.692 -3.409,-18.897 -3.658,-18.897M-3.658,-19.841C-4.423,-19.841 -5.042,-19.214 -5.042,-18.44C-5.042,-17.666 -4.423,-17.038 -3.658,-17.038C-2.894,-17.038 -2.273,-17.666 -2.273,-18.44C-2.273,-19.214 -2.894,-19.841 -3.658,-19.841M-4.803,-22.204C-6.643,-21.631 -7.792,-19.781 -7.506,-17.854C-7.22,-15.927 -5.583,-14.501 -3.658,-14.501C-1.733,-14.501 -0.097,-15.927 0.19,-17.854C0.476,-19.781 -0.673,-21.631 -2.514,-22.204M-4.804,-22.45C-6.777,-21.872 -8.03,-19.913 -7.742,-17.854C-7.454,-15.795 -5.713,-14.265 -3.658,-14.265C-1.604,-14.265 0.137,-15.795 0.425,-17.854C0.714,-19.913 -0.54,-21.872 -2.513,-22.45M-2.507,-21.965L-4.81,-21.965M-4.81,-21.965L-4.81,-22.201M-4.81,-22.201L-4.81,-22.437M-2.507,-22.437L-2.507,-22.201M-2.507,-22.201L-2.507,-21.965M-3.673,-22.614L-3.207,-22.585L-3.032,-22.555L-2.856,-22.526L-2.711,-22.496L-2.595,-22.467L-2.536,-22.467L-2.507,-22.437M-4.81,-22.437L-4.781,-22.467L-4.722,-22.467L-4.605,-22.496L-4.459,-22.526L-4.314,-22.555L-4.11,-22.585L-3.673,-22.614M-11.455,-18.533L-11.455,-18.347M4.138,-18.347L4.138,-18.533M5.159,-18.44L5.158,-18.534M-12.475,-18.533L-12.475,-18.346M5.158,-18.346L5.159,-18.44M5.975,-18.44L5.975,-18.533M-13.291,-18.532L-13.291,-18.347M5.975,-18.347L5.975,-18.44M-0.437,-32.409L-1.254,-32.409M-6.063,-32.409L-6.879,-32.409M-0.423,-32.409C0.101,-32.409 0.524,-32.838 0.524,-33.368M0.495,-33.559L0.495,-33.353M0.524,-33.574C0.524,-33.738 0.451,-33.893 0.326,-33.997M0.204,-34.253L0.327,-33.99M0.174,-37.011L0.174,-34.238M0.327,-37.289L0.204,-37.026M0.326,-37.281C0.451,-37.385 0.524,-37.54 0.524,-37.705M0.495,-37.778L0.495,-37.69M22.657,-32.675L22.593,-32.797M23.696,-33.353L22.647,-32.674M25.532,-24.709L23.696,-33.353M25.542,-12.155C26.422,-16.297 26.422,-20.582 25.542,-24.725M23.696,-3.497L25.532,-12.141M22.647,-4.176L23.696,-3.497M22.594,-4.084L22.658,-4.207M0.495,0.84L0.495,0.928M0.524,0.825C0.524,0.661 0.451,0.506 0.326,0.402M0.204,0.146L0.327,0.409M0.174,-2.642L0.174,0.161M0.327,-2.919L0.204,-2.656M0.326,-2.912C0.451,-3.015 0.524,-3.17 0.524,-3.335M0.495,-3.527L0.495,-3.32M0.524,-3.541C0.524,-4.071 0.101,-4.5 -0.423,-4.5M-6.879,-4.471L-6.063,-4.471M-1.254,-4.471L-0.437,-4.471M-6.864,-4.5C-7.387,-4.5 -7.812,-4.071 -7.812,-3.541M-7.812,-3.32L-7.812,-3.527M-7.812,-3.335C-7.812,-3.17 -7.739,-3.015 -7.613,-2.912M-7.491,-2.656L-7.615,-2.919M-7.491,0.161L-7.491,-2.642M-7.615,0.409L-7.491,0.146M-7.613,0.402C-7.739,0.506 -7.812,0.661 -7.812,0.825M-7.812,0.928L-7.812,0.84M-29.946,-4.207L-29.882,-4.084M-31.013,-3.497L-29.963,-4.176M-32.849,-12.141L-31.013,-3.497M-32.83,-24.725C-33.71,-20.582 -33.71,-16.297 -32.83,-12.155M-31.013,-33.353L-32.849,-24.709M-29.963,-32.674L-31.013,-33.353M-29.882,-32.795L-29.946,-32.672M-7.812,-37.69L-7.812,-37.778M-7.812,-37.705C-7.812,-37.54 -7.739,-37.385 -7.613,-37.281M-7.491,-37.026L-7.615,-37.289M-7.491,-34.238L-7.491,-37.011M-7.615,-33.99L-7.491,-34.253M-7.613,-33.997C-7.739,-33.893 -7.812,-33.738 -7.812,-33.574M-7.812,-33.353L-7.812,-33.559M-7.812,-33.368C-7.812,-32.838 -7.387,-32.409 -6.864,-32.409M-28.2,-19.458C-28.755,-19.458 -29.205,-19.002 -29.205,-18.44C-29.205,-17.878 -28.755,-17.422 -28.2,-17.422C-27.645,-17.422 -27.194,-17.878 -27.194,-18.44C-27.194,-19.002 -27.645,-19.458 -28.2,-19.458M20.913,-19.458C20.357,-19.458 19.907,-19.002 19.907,-18.44C19.907,-17.878 20.357,-17.422 20.913,-17.422C21.468,-17.422 21.918,-17.878 21.918,-18.44C21.918,-19.002 21.468,-19.458 20.913,-19.458M-12.825,-18.533L-12.825,-18.44M5.508,-18.346L5.508,-18.533M-12.825,-18.44L-12.825,-18.346M-13.977,-13.026C-14.306,-13.026 -14.574,-12.755 -14.574,-12.421C-14.574,-12.087 -14.306,-11.816 -13.977,-11.816C-13.646,-11.816 -13.379,-12.087 -13.379,-12.421C-13.379,-12.755 -13.646,-13.026 -13.977,-13.026M6.689,-13.026C6.359,-13.026 6.091,-12.755 6.091,-12.421C6.091,-12.087 6.359,-11.816 6.689,-11.816C7.019,-11.816 7.287,-12.087 7.287,-12.421C7.287,-12.755 7.019,-13.026 6.689,-13.026M-3.658,-6.978C-3.989,-6.978 -4.256,-6.708 -4.256,-6.374C-4.256,-6.039 -3.989,-5.769 -3.658,-5.769C-3.328,-5.769 -3.061,-6.039 -3.061,-6.374C-3.061,-6.708 -3.328,-6.978 -3.658,-6.978M-13.977,-13.351C-14.483,-13.351 -14.895,-12.934 -14.895,-12.421C-14.895,-11.908 -14.483,-11.492 -13.977,-11.492C-13.469,-11.492 -13.059,-11.908 -13.059,-12.421C-13.059,-12.934 -13.469,-13.351 -13.977,-13.351M6.689,-13.351C6.182,-13.351 5.771,-12.934 5.771,-12.421C5.771,-11.908 6.182,-11.492 6.689,-11.492C7.196,-11.492 7.607,-11.908 7.607,-12.421C7.607,-12.934 7.196,-13.351 6.689,-13.351M-3.658,-7.303C-4.166,-7.303 -4.576,-6.887 -4.576,-6.374C-4.576,-5.86 -4.166,-5.444 -3.658,-5.444C-3.151,-5.444 -2.74,-5.86 -2.74,-6.374C-2.74,-6.887 -3.151,-7.303 -3.658,-7.303M1.166,-18.337L10.347,-18.337M-17.663,-18.347C-17.613,-10.554 -11.357,-4.264 -3.658,-4.264C4.041,-4.264 10.296,-10.554 10.347,-18.347M-17.663,-18.337L-8.482,-18.337M-13.977,-25.092C-14.306,-25.092 -14.574,-24.822 -14.574,-24.488C-14.574,-24.153 -14.306,-23.883 -13.977,-23.883C-13.646,-23.883 -13.379,-24.153 -13.379,-24.488C-13.379,-24.822 -13.646,-25.092 -13.977,-25.092M6.689,-25.092C6.359,-25.092 6.091,-24.822 6.091,-24.488C6.091,-24.153 6.359,-23.883 6.689,-23.883C7.019,-23.883 7.287,-24.153 7.287,-24.488C7.287,-24.822 7.019,-25.092 6.689,-25.092M-3.658,-31.14C-3.989,-31.14 -4.256,-30.869 -4.256,-30.535C-4.256,-30.201 -3.989,-29.93 -3.658,-29.93C-3.328,-29.93 -3.061,-30.201 -3.061,-30.535C-3.061,-30.869 -3.328,-31.14 -3.658,-31.14" style="fill:none;stroke:black;stroke-width:0.52px;"/>
                </g>
                <g transform="matrix(2.94675,0,0,2.94675,4383.73,1343.06)">
                    <path d="M0,-33.164C-0.508,-33.164 -0.919,-32.748 -0.919,-32.235C-0.919,-31.721 -0.508,-31.305 0,-31.305C0.508,-31.305 0.919,-31.721 0.919,-32.235C0.919,-32.748 0.508,-33.164 0,-33.164M20.692,-33.164C20.184,-33.164 19.772,-32.748 19.772,-32.235C19.772,-31.721 20.184,-31.305 20.692,-31.305C21.2,-31.305 21.611,-31.721 21.611,-32.235C21.611,-32.748 21.2,-33.164 20.692,-33.164M10.332,-39.213C9.824,-39.213 9.412,-38.797 9.412,-38.283C9.412,-37.77 9.824,-37.354 10.332,-37.354C10.839,-37.354 11.25,-37.77 11.25,-38.283C11.25,-38.797 10.839,-39.213 10.332,-39.213M24.354,-26.28C24.303,-34.073 18.04,-40.363 10.331,-40.363C2.622,-40.363 -3.641,-34.072 -3.691,-26.279M15.162,-26.26L24.355,-26.26M-3.691,-26.26L5.501,-26.26M18.532,-51.28C17.106,-51.28 15.949,-50.111 15.949,-48.669C15.949,-47.227 17.106,-46.058 18.532,-46.058C19.958,-46.058 21.115,-47.227 21.115,-48.669C21.115,-50.111 19.958,-51.28 18.532,-51.28M18.532,-50.07C17.767,-50.07 17.146,-49.443 17.146,-48.669C17.146,-47.895 17.767,-47.268 18.532,-47.268C19.298,-47.268 19.919,-47.895 19.919,-48.669C19.919,-49.443 19.298,-50.07 18.532,-50.07M2.16,-6.315C0.733,-6.315 -0.423,-5.146 -0.423,-3.704C-0.423,-2.261 0.733,-1.092 2.16,-1.092C3.586,-1.092 4.743,-2.261 4.743,-3.704C4.743,-5.146 3.586,-6.315 2.16,-6.315M2.16,-5.105C1.394,-5.105 0.774,-4.478 0.774,-3.704C0.774,-2.93 1.394,-2.302 2.16,-2.302C2.925,-2.302 3.546,-2.93 3.546,-3.704C3.546,-4.478 2.925,-5.105 2.16,-5.105M6.64,-53.581L6.611,-53.522M2.16,-51.28C0.733,-51.28 -0.423,-50.111 -0.423,-48.669C-0.423,-47.227 0.733,-46.058 2.16,-46.058C3.586,-46.058 4.743,-47.227 4.743,-48.669C4.743,-50.111 3.586,-51.28 2.16,-51.28M2.16,-50.07C1.394,-50.07 0.774,-49.443 0.774,-48.669C0.774,-47.895 1.394,-47.268 2.16,-47.268C2.925,-47.268 3.546,-47.895 3.546,-48.669C3.546,-49.443 2.925,-50.07 2.16,-50.07M18.532,-6.315C17.106,-6.315 15.949,-5.146 15.949,-3.704C15.949,-2.261 17.106,-1.092 18.532,-1.092C19.958,-1.092 21.115,-2.261 21.115,-3.704C21.115,-5.146 19.958,-6.315 18.532,-6.315M18.532,-5.105C17.767,-5.105 17.146,-4.478 17.146,-3.704C17.146,-2.93 17.767,-2.302 18.532,-2.302C19.298,-2.302 19.919,-2.93 19.919,-3.704C19.919,-4.478 19.298,-5.105 18.532,-5.105M6.64,2.065L6.844,2.242M6.64,-10.77L6.64,2.065M13.819,2.95L12.768,4.012M12.784,3.998C12.699,4.084 12.651,4.2 12.651,4.322M12.623,4.336L12.623,5.812M12.651,5.797C12.651,5.918 12.699,6.035 12.784,6.12M12.768,6.136L13.819,7.228M8.041,5.104L8.041,3.658M8.041,3.643C8.041,3.522 7.993,3.406 7.908,3.32M7.895,3.304L6.844,2.242M13.819,2.95L13.994,2.773M13.994,7.405L13.819,7.228M13.994,20.033L13.994,7.405M6.669,20.018L6.721,20.15M13.971,20.15L14.023,20.018M6.844,20.033L6.698,20.181M6.814,20.239L10.317,20.417M6.721,20.15L6.849,20.21M13.843,20.21L13.971,20.15M10.317,20.417L13.819,20.239M13.965,20.181L13.819,20.033M14.023,-10.785L13.971,-10.917M6.721,-10.917L6.669,-10.785M13.819,-10.77L13.965,-10.888M13.819,-10.947L10.425,-10.976M13.971,-10.917L13.843,-10.976M6.849,-10.976L6.721,-10.917M10.425,-10.976L6.849,-10.976M6.64,6.697L6.64,20.033M13.994,2.773L13.994,-10.77M10.332,3.068C9.872,3.068 9.5,3.444 9.5,3.909C9.5,4.373 9.872,4.75 10.332,4.75C10.791,4.75 11.164,4.373 11.164,3.909C11.164,3.444 10.791,3.068 10.332,3.068M10.332,2.979C9.824,2.979 9.412,3.396 9.412,3.909C9.412,4.422 9.824,4.838 10.332,4.838C10.839,4.838 11.25,4.422 11.25,3.909C11.25,3.396 10.839,2.979 10.332,2.979M13.994,1.209L14.053,1.15" style="fill:none;stroke:black;stroke-width:0.52px;"/>
                </g>
            </g>
        </g>
    </g>
</svg>
