<?xml version="1.0" encoding="UTF-8" standalone="no"?>
<!DOCTYPE svg PUBLIC "-//W3C//DTD SVG 1.1//EN" "http://www.w3.org/Graphics/SVG/1.1/DTD/svg11.dtd">
<svg width="100%" height="100%" viewBox="0 0 389 114" version="1.1" xmlns="http://www.w3.org/2000/svg" xmlns:xlink="http://www.w3.org/1999/xlink" xml:space="preserve" xmlns:serif="http://www.serif.com/" style="fill-rule:evenodd;clip-rule:evenodd;stroke-linecap:round;stroke-linejoin:round;stroke-miterlimit:1.5;">
    <g transform="matrix(1,0,0,1,-5283.37,-888.744)">
        <g transform="matrix(2,0,0,4.56884,3126.41,0)">
            <g transform="matrix(1.05465,0,0,0.563497,180.703,-19.8326)">
                <g transform="matrix(0.246862,0,0,0.19403,-177.515,169.434)">
                    <path d="M4910,1120.58C4910,1103.7 4896.86,1090 4880.67,1090L4199.33,1090C4183.14,1090 4170,1103.7 4170,1120.58L4170,1281.42C4170,1298.3 4183.14,1312 4199.33,1312L4880.67,1312C4896.86,1312 4910,1298.3 4910,1281.42L4910,1120.58Z" style="fill:rgb(244,243,189);stroke:rgb(186,90,9);stroke-width:5.31px;"/>
                </g>
                <g transform="matrix(0.179555,0,0,0.1328,144.222,238.65)">
                    <g transform="matrix(1.71394,0,0,1.8986,-3008.28,-1011.82)">
                        <path d="M4259.83,1188.5L4247.86,1188.5L4230.37,1149.64L4230.37,1188.5L4218.4,1188.5L4218.4,1129.26L4230.37,1129.26L4247.9,1168.15L4247.9,1129.26L4259.83,1129.26L4259.83,1188.5Z" style="fill:rgb(130,57,0);fill-rule:nonzero;"/>
                    </g>
                    <g transform="matrix(1.71394,0,0,1.8986,-3008.28,-1011.82)">
                        <path d="M4311.14,1164.21C4311.14,1172.16 4309.26,1178.33 4305.5,1182.72C4301.74,1187.12 4296.53,1189.31 4289.86,1189.31C4283.21,1189.31 4277.99,1187.14 4274.19,1182.78C4270.39,1178.43 4268.47,1172.33 4268.41,1164.49L4268.41,1154.36C4268.41,1146.22 4270.3,1139.87 4274.07,1135.3C4277.84,1130.73 4283.07,1128.44 4289.77,1128.44C4296.37,1128.44 4301.56,1130.69 4305.36,1135.18C4309.16,1139.66 4311.08,1145.96 4311.14,1154.08L4311.14,1164.21ZM4299.13,1154.28C4299.13,1148.94 4298.38,1144.96 4296.86,1142.36C4295.34,1139.75 4292.98,1138.45 4289.77,1138.45C4286.6,1138.45 4284.26,1139.71 4282.74,1142.21C4281.22,1144.72 4280.43,1148.54 4280.38,1153.67L4280.38,1164.21C4280.38,1169.39 4281.15,1173.21 4282.69,1175.66C4284.24,1178.12 4286.63,1179.35 4289.86,1179.35C4292.98,1179.35 4295.3,1178.14 4296.82,1175.74C4298.33,1173.34 4299.11,1169.62 4299.13,1164.57L4299.13,1154.28Z" style="fill:rgb(130,57,0);fill-rule:nonzero;"/>
                    </g>
                    <g transform="matrix(1.71394,0,0,1.8986,-3008.28,-1011.82)">
                        <rect x="4319.97" y="1158.31" width="19.897" height="9.603" style="fill:rgb(130,57,0);fill-rule:nonzero;"/>
                    </g>
                    <g transform="matrix(1.71394,0,0,1.8986,-3008.28,-1011.82)">
                        <path d="M4390.16,1168.77C4389.86,1175.52 4387.96,1180.63 4384.46,1184.11C4380.96,1187.58 4376.03,1189.31 4369.65,1189.31C4362.95,1189.31 4357.82,1187.11 4354.25,1182.7C4350.68,1178.29 4348.9,1172.01 4348.9,1163.84L4348.9,1153.87C4348.9,1145.74 4350.74,1139.46 4354.43,1135.05C4358.12,1130.64 4363.25,1128.44 4369.81,1128.44C4376.27,1128.44 4381.17,1130.25 4384.52,1133.85C4387.87,1137.46 4389.78,1142.64 4390.24,1149.4L4378.24,1149.4C4378.13,1145.22 4377.48,1142.34 4376.3,1140.75C4375.12,1139.16 4372.96,1138.37 4369.81,1138.37C4366.61,1138.37 4364.35,1139.49 4363.02,1141.73C4361.69,1143.96 4360.98,1147.65 4360.9,1152.77L4360.9,1163.96C4360.9,1169.85 4361.56,1173.89 4362.88,1176.09C4364.19,1178.29 4366.45,1179.38 4369.65,1179.38C4372.8,1179.38 4374.97,1178.62 4376.16,1177.09C4377.35,1175.55 4378.03,1172.78 4378.19,1168.77L4390.16,1168.77Z" style="fill:rgb(130,57,0);fill-rule:nonzero;"/>
                    </g>
                    <g transform="matrix(1.71394,0,0,1.8986,-3008.28,-1011.82)">
                        <path d="M4409.49,1178.57L4430.48,1178.57L4430.48,1188.5L4397.52,1188.5L4397.52,1129.26L4409.49,1129.26L4409.49,1178.57Z" style="fill:rgb(130,57,0);fill-rule:nonzero;"/>
                    </g>
                    <g transform="matrix(1.71394,0,0,1.8986,-3008.28,-1011.82)">
                        <path d="M4476.5,1164.21C4476.5,1172.16 4474.62,1178.33 4470.87,1182.72C4467.11,1187.12 4461.9,1189.31 4455.22,1189.31C4448.57,1189.31 4443.35,1187.14 4439.56,1182.78C4435.76,1178.43 4433.83,1172.33 4433.78,1164.49L4433.78,1154.36C4433.78,1146.22 4435.66,1139.87 4439.43,1135.3C4443.2,1130.73 4448.44,1128.44 4455.14,1128.44C4461.73,1128.44 4466.93,1130.69 4470.72,1135.18C4474.52,1139.66 4476.45,1145.96 4476.5,1154.08L4476.5,1164.21ZM4464.5,1154.28C4464.5,1148.94 4463.74,1144.96 4462.22,1142.36C4460.7,1139.75 4458.34,1138.45 4455.14,1138.45C4451.97,1138.45 4449.62,1139.71 4448.1,1142.21C4446.58,1144.72 4445.8,1148.54 4445.74,1153.67L4445.74,1164.21C4445.74,1169.39 4446.51,1173.21 4448.06,1175.66C4449.61,1178.12 4451.99,1179.35 4455.22,1179.35C4458.34,1179.35 4460.66,1178.14 4462.18,1175.74C4463.7,1173.34 4464.47,1169.62 4464.5,1164.57L4464.5,1154.28Z" style="fill:rgb(130,57,0);fill-rule:nonzero;"/>
                    </g>
                    <g transform="matrix(1.71394,0,0,1.8986,-3008.28,-1011.82)">
                        <path d="M4525.37,1181.79C4523.07,1184.28 4520.24,1186.16 4516.89,1187.42C4513.54,1188.68 4509.87,1189.31 4505.88,1189.31C4499.07,1189.31 4493.78,1187.2 4490.01,1182.99C4486.24,1178.77 4484.3,1172.63 4484.19,1164.57L4484.19,1153.91C4484.19,1145.75 4485.98,1139.46 4489.54,1135.05C4493.11,1130.64 4498.31,1128.44 4505.15,1128.44C4511.58,1128.44 4516.43,1130.03 4519.69,1133.2C4522.96,1136.38 4524.86,1141.35 4525.37,1148.13L4513.73,1148.13C4513.41,1144.37 4512.62,1141.8 4511.37,1140.42C4510.13,1139.06 4508.17,1138.37 4505.51,1138.37C4502.29,1138.37 4499.94,1139.55 4498.48,1141.91C4497.01,1144.27 4496.25,1148.03 4496.2,1153.18L4496.2,1163.92C4496.2,1169.32 4497,1173.25 4498.62,1175.7C4500.23,1178.16 4502.88,1179.38 4506.57,1179.38C4508.93,1179.38 4510.85,1178.91 4512.31,1177.96L4513.37,1177.23L4513.37,1166.37L4504.98,1166.37L4504.98,1157.33L4525.37,1157.33L4525.37,1181.79Z" style="fill:rgb(130,57,0);fill-rule:nonzero;"/>
                    </g>
                </g>
                <g transform="matrix(0.0213506,0,0,0.00473244,901.973,408.446)">
                    <g transform="matrix(10.3314,0,0,38.1875,0,0)">
                        <path d="M21.814,30.164L8.976,30.164L6.028,40.08L1.122,40.08L13.36,2.088L17.457,2.088L29.721,40.08L24.815,40.08L21.814,30.164ZM10.229,26.042L20.588,26.042L15.395,8.768L10.229,26.042Z" style="fill:rgb(130,57,0);fill-rule:nonzero;"/>
                    </g>
                    <g transform="matrix(10.3314,0,0,38.1875,0,0)">
                        <path d="M59.703,40.08L54.901,40.08L39.689,10.803L39.689,40.08L34.887,40.08L34.887,2.088L39.689,2.088L54.953,31.495L54.953,2.088L59.703,2.088L59.703,40.08Z" style="fill:rgb(130,57,0);fill-rule:nonzero;"/>
                    </g>
                    <g transform="matrix(10.3314,0,0,38.1875,0,0)">
                        <path d="M89.423,6.21L79.429,6.21L79.429,40.08L74.654,40.08L74.654,6.21L64.686,6.21L64.686,2.088L89.423,2.088L89.423,6.21Z" style="fill:rgb(130,57,0);fill-rule:nonzero;"/>
                    </g>
                    <g transform="matrix(10.3314,0,0,38.1875,0,0)">
                        <rect x="95.242" y="2.088" width="4.775" height="37.993" style="fill:rgb(130,57,0);fill-rule:nonzero;"/>
                    </g>
                    <g transform="matrix(10.3314,0,0,38.1875,0,0)">
                        <path d="M144.455,28.025C144.246,32.095 143.103,35.209 141.024,37.366C138.945,39.523 136.009,40.602 132.217,40.602C128.407,40.602 125.381,39.154 123.136,36.257C120.892,33.361 119.77,29.434 119.77,24.476L119.77,17.587C119.77,12.647 120.923,8.741 123.228,5.871C125.533,3.001 128.677,1.566 132.661,1.566C136.331,1.566 139.171,2.666 141.18,4.866C143.19,7.067 144.281,10.211 144.455,14.299L139.628,14.299C139.419,11.203 138.767,8.994 137.671,7.672C136.575,6.349 134.905,5.688 132.661,5.688C130.069,5.688 128.077,6.702 126.685,8.728C125.294,10.755 124.598,13.725 124.598,17.639L124.598,24.606C124.598,28.451 125.246,31.399 126.542,33.452C127.838,35.505 129.729,36.531 132.217,36.531C134.705,36.531 136.496,35.914 137.592,34.679C138.688,33.444 139.367,31.226 139.628,28.025L144.455,28.025Z" style="fill:rgb(130,57,0);fill-rule:nonzero;"/>
                    </g>
                    <g transform="matrix(10.3314,0,0,38.1875,0,0)">
                        <path d="M155.728,35.983L170.627,35.983L170.627,40.08L150.926,40.08L150.926,2.088L155.728,2.088L155.728,35.983Z" style="fill:rgb(130,57,0);fill-rule:nonzero;"/>
                    </g>
                    <g transform="matrix(10.3314,0,0,38.1875,0,0)">
                        <path d="M199.33,24.424C199.33,29.608 198.226,33.6 196.016,36.401C193.807,39.202 190.667,40.602 186.596,40.602C182.682,40.602 179.59,39.241 177.32,36.518C175.05,33.796 173.871,29.947 173.784,24.972L173.784,17.822C173.784,12.742 174.906,8.763 177.151,5.884C179.395,3.005 182.526,1.566 186.544,1.566C190.545,1.566 193.664,2.944 195.899,5.701C198.134,8.459 199.278,12.395 199.33,17.509L199.33,24.424ZM194.555,17.77C194.555,13.751 193.898,10.764 192.585,8.807C191.272,6.85 189.258,5.871 186.544,5.871C183.918,5.871 181.93,6.863 180.582,8.846C179.234,10.829 178.551,13.751 178.533,17.613L178.533,24.424C178.533,28.303 179.208,31.26 180.556,33.296C181.904,35.331 183.918,36.349 186.596,36.349C189.275,36.349 191.259,35.409 192.546,33.53C193.833,31.652 194.503,28.773 194.555,24.893L194.555,17.77Z" style="fill:rgb(130,57,0);fill-rule:nonzero;"/>
                    </g>
                    <g transform="matrix(10.3314,0,0,38.1875,0,0)">
                        <path d="M230.486,35.357L229.651,36.401C227.251,39.202 223.737,40.602 219.109,40.602C215.004,40.602 211.781,39.241 209.442,36.518C207.102,33.796 205.906,29.947 205.854,24.972L205.854,17.509C205.854,12.186 206.919,8.198 209.05,5.545C211.181,2.892 214.369,1.566 218.614,1.566C222.232,1.566 225.063,2.575 227.107,4.593C229.151,6.61 230.277,9.489 230.486,13.23L225.711,13.23C225.52,10.864 224.863,9.015 223.741,7.685C222.619,6.354 220.918,5.688 218.64,5.688C215.908,5.688 213.908,6.58 212.638,8.363C211.368,10.146 210.707,12.995 210.655,16.909L210.655,24.659C210.655,28.486 211.386,31.421 212.847,33.465C214.308,35.509 216.404,36.531 219.135,36.531C221.71,36.531 223.667,35.905 225.006,34.653L225.711,34L225.711,25.233L218.77,25.233L218.77,21.162L230.486,21.162L230.486,35.357Z" style="fill:rgb(130,57,0);fill-rule:nonzero;"/>
                    </g>
                    <g transform="matrix(10.3314,0,0,38.1875,0,0)">
                        <path d="M267.122,30.478C267.122,28.581 266.609,27.129 265.582,26.12C264.556,25.111 262.703,24.128 260.024,23.171C257.345,22.214 255.297,21.21 253.879,20.157C252.461,19.105 251.4,17.905 250.696,16.556C249.991,15.208 249.639,13.664 249.639,11.925C249.639,8.915 250.644,6.436 252.653,4.488C254.662,2.54 257.293,1.566 260.546,1.566C262.773,1.566 264.756,2.066 266.496,3.066C268.235,4.066 269.575,5.454 270.514,7.228C271.453,9.002 271.923,10.951 271.923,13.073L267.122,13.073C267.122,10.725 266.556,8.907 265.426,7.619C264.295,6.332 262.668,5.688 260.546,5.688C258.615,5.688 257.119,6.228 256.058,7.306C254.997,8.385 254.466,9.898 254.466,11.847C254.466,13.447 255.04,14.786 256.189,15.865C257.337,16.944 259.111,17.909 261.512,18.761C265.252,19.997 267.926,21.519 269.535,23.328C271.145,25.137 271.949,27.503 271.949,30.425C271.949,33.504 270.949,35.97 268.948,37.823C266.948,39.676 264.225,40.602 260.781,40.602C258.572,40.602 256.532,40.119 254.662,39.154C252.792,38.188 251.322,36.831 250.252,35.083C249.182,33.335 248.647,31.33 248.647,29.068L253.449,29.068C253.449,31.417 254.105,33.243 255.419,34.548C256.732,35.853 258.52,36.505 260.781,36.505C262.886,36.505 264.469,35.966 265.53,34.887C266.591,33.809 267.122,32.339 267.122,30.478Z" style="fill:rgb(130,57,0);fill-rule:nonzero;"/>
                    </g>
                    <g transform="matrix(10.3314,0,0,38.1875,0,0)">
                        <path d="M288.101,21.162L295.877,2.088L301.279,2.088L290.476,25.911L290.476,40.08L285.701,40.08L285.701,25.911L274.898,2.088L280.325,2.088L288.101,21.162Z" style="fill:rgb(130,57,0);fill-rule:nonzero;"/>
                    </g>
                    <g transform="matrix(10.3314,0,0,38.1875,0,0)">
                        <path d="M322.414,30.478C322.414,28.581 321.901,27.129 320.875,26.12C319.849,25.111 317.996,24.128 315.317,23.171C312.638,22.214 310.59,21.21 309.172,20.157C307.754,19.105 306.693,17.905 305.988,16.556C305.284,15.208 304.932,13.664 304.932,11.925C304.932,8.915 305.936,6.436 307.945,4.488C309.955,2.54 312.586,1.566 315.839,1.566C318.066,1.566 320.049,2.066 321.788,3.066C323.528,4.066 324.867,5.454 325.807,7.228C326.746,9.002 327.216,10.951 327.216,13.073L322.414,13.073C322.414,10.725 321.849,8.907 320.718,7.619C319.588,6.332 317.961,5.688 315.839,5.688C313.908,5.688 312.412,6.228 311.351,7.306C310.29,8.385 309.759,9.898 309.759,11.847C309.759,13.447 310.333,14.786 311.481,15.865C312.629,16.944 314.404,17.909 316.804,18.761C320.544,19.997 323.219,21.519 324.828,23.328C326.437,25.137 327.242,27.503 327.242,30.425C327.242,33.504 326.242,35.97 324.241,37.823C322.241,39.676 319.518,40.602 316.074,40.602C313.864,40.602 311.825,40.119 309.955,39.154C308.085,38.188 306.615,36.831 305.545,35.083C304.475,33.335 303.94,31.33 303.94,29.068L308.741,29.068C308.741,31.417 309.398,33.243 310.711,34.548C312.025,35.853 313.812,36.505 316.074,36.505C318.179,36.505 319.762,35.966 320.823,34.887C321.884,33.809 322.414,32.339 322.414,30.478Z" style="fill:rgb(130,57,0);fill-rule:nonzero;"/>
                    </g>
                    <g transform="matrix(10.3314,0,0,38.1875,0,0)">
                        <path d="M355.71,6.21L345.716,6.21L345.716,40.08L340.941,40.08L340.941,6.21L330.973,6.21L330.973,2.088L355.71,2.088L355.71,6.21Z" style="fill:rgb(130,57,0);fill-rule:nonzero;"/>
                    </g>
                    <g transform="matrix(10.3314,0,0,38.1875,0,0)">
                        <path d="M379.534,22.519L366.095,22.519L366.095,35.983L381.752,35.983L381.752,40.08L361.32,40.08L361.32,2.088L381.491,2.088L381.491,6.21L366.095,6.21L366.095,18.422L379.534,18.422L379.534,22.519Z" style="fill:rgb(130,57,0);fill-rule:nonzero;"/>
                    </g>
                    <g transform="matrix(10.3314,0,0,38.1875,0,0)">
                        <path d="M394.016,2.088L403.931,33.087L413.847,2.088L420.005,2.088L420.005,40.08L415.23,40.08L415.23,25.285L415.674,10.464L405.732,40.08L402.079,40.08L392.189,10.568L392.633,25.285L392.633,40.08L387.858,40.08L387.858,2.088L394.016,2.088Z" style="fill:rgb(130,57,0);fill-rule:nonzero;"/>
                    </g>
                </g>
                <g transform="matrix(0.319917,-0.262105,0.319917,0.262105,-835.817,1255.16)">
                    <circle cx="4306" cy="1048" r="30" style="fill:white;stroke:rgb(186,90,9);stroke-width:4.37px;"/>
                    <g transform="matrix(0.62766,0,0,0.9,1611.7,-24.2)">
                        <rect x="4248" y="1188" width="94" height="10" style="fill:rgb(186,90,9);"/>
                    </g>
                </g>
            </g>
        </g>
    </g>
</svg>
